<svg width="497" height="234" viewBox="0 0 497 234" fill="none" xmlns="http://www.w3.org/2000/svg">
<rect y="33.7367" width="483.635" height="200" rx="5" transform="rotate(-4 0 33.7367)" fill="#1E4681"/>
<path d="M37.9066 76.734C36.7781 76.8129 35.7294 76.6905 34.7605 76.3666C33.7915 76.0428 33.0006 75.523 32.3876 74.8072C31.7828 74.0908 31.4537 73.1756 31.4002 72.0617L31.4195 71.987L33.7088 71.8269C33.752 72.4439 33.9413 72.9935 34.2769 73.4758C34.62 73.9495 35.09 74.3123 35.6868 74.5642C36.2918 74.8156 37.0042 74.9126 37.8241 74.8553C39.0094 74.7724 39.9666 74.4036 40.6959 73.749C41.4245 73.0862 41.7505 72.2068 41.6739 71.1108C41.6058 70.1366 41.221 69.4171 40.5195 68.9522C39.8175 68.4792 38.817 68.2881 37.5181 68.3789L35.521 68.5186L35.3882 66.6189L37.3853 66.4793C38.6355 66.3919 39.5425 66.0633 40.1063 65.4936C40.6702 64.9239 40.9203 64.1844 40.8567 63.2752C40.7909 62.3335 40.4006 61.5939 39.6859 61.0566C38.9794 60.5186 37.9645 60.2959 36.6412 60.3884C35.7888 60.448 35.0791 60.6241 34.5122 60.9166C33.9447 61.201 33.4914 61.5427 33.1522 61.9417L32.864 64.4704L31.1835 64.5879L30.9638 61.4462C31.4218 60.7615 32.1481 60.1234 33.1427 59.5317C34.1369 58.932 35.3361 58.583 36.7406 58.4847C38.624 58.353 40.1516 58.6745 41.3234 59.4492C42.4946 60.2157 43.1311 61.3255 43.2327 62.7787C43.3014 63.761 43.1047 64.6231 42.6426 65.3652C42.18 66.0991 41.5158 66.6921 40.6501 67.1443C41.6887 67.4143 42.5006 67.8837 43.0858 68.5525C43.6791 69.2207 44.0115 70.0663 44.083 71.0892C44.1585 72.1689 43.9475 73.1178 43.45 73.9357C42.96 74.745 42.2383 75.391 41.285 75.8737C40.3316 76.3564 39.2055 76.6432 37.9066 76.734ZM46.5844 80.9607L46.4762 79.4142L48.3155 78.943L47.3039 64.4764L45.2952 64.2742L45.187 62.7277L49.2299 62.445L49.5615 64.037C49.9578 63.4056 50.4575 62.9098 51.0605 62.5495C51.6715 62.1886 52.3911 61.9792 53.2192 61.9213C54.307 61.8452 55.2573 62.0765 56.0699 62.6152C56.882 63.1458 57.5282 63.9286 58.0085 64.9637C58.4882 65.9907 58.7777 67.2145 58.8771 68.6352L58.895 68.891C58.9835 70.1574 58.854 71.28 58.5064 72.2588C58.1669 73.237 57.6343 74.0207 56.9087 74.6099C56.1825 75.1909 55.2836 75.5189 54.212 75.5938C53.4001 75.6506 52.6764 75.5666 52.0407 75.3418C51.4125 75.1084 50.8645 74.7388 50.3968 74.2331L50.7144 78.7752L52.8328 78.9697L52.9409 80.5163L46.5844 80.9607ZM53.338 73.7705C54.4746 73.691 55.3061 73.2168 55.8327 72.3479C56.3593 71.4789 56.5764 70.3828 56.4839 69.0596L56.466 68.8038C56.3956 67.7972 56.2038 66.9214 55.8907 66.1764C55.577 65.4234 55.145 64.8458 54.5948 64.4438C54.0527 64.0411 53.396 63.8668 52.6248 63.9207C51.9428 63.9684 51.3691 64.1635 50.9036 64.5061C50.4381 64.8486 50.0739 65.2983 49.811 65.8551L50.2597 72.2726C50.5981 72.7955 51.0173 73.1904 51.5173 73.4572C52.0248 73.7154 52.6317 73.8198 53.338 73.7705ZM61.9754 74.794L61.8681 73.2596L63.8291 72.7799L63.1709 63.3668L61.1622 63.1647L61.054 61.6181L65.4257 61.3124L67.4106 61.1736L67.5187 62.7202L65.5577 63.1999L66.0779 70.6403L66.1527 70.6595L71.3073 60.9012L73.7062 60.7334L75.6911 60.5946L75.7993 62.1411L73.8382 62.6209L74.4964 72.0339L76.5052 72.2361L76.6125 73.7704L70.2438 74.2158L70.1365 72.6815L72.0975 72.2017L71.5764 64.7492L71.5016 64.7299L66.347 74.4883L61.9754 74.794ZM81.7635 73.4103L81.6562 71.8759L83.6172 71.3962L82.9573 61.9587L80.1809 62.1529L80.1421 64.2236L78.0964 64.3667L77.8222 60.4456L90.2917 59.5736L90.5659 63.4947L88.5079 63.6386L88.1814 61.5934L85.3562 61.791L86.0162 71.2284L88.0249 71.4306L88.1322 72.9649L81.7635 73.4103ZM98.1842 72.519C96.9664 72.6041 95.8877 72.4022 94.948 71.9132C94.0077 71.416 93.2553 70.6896 92.6909 69.7338C92.1345 68.7774 91.8109 67.6498 91.7201 66.3509L91.6826 65.8151C91.5952 64.5649 91.7729 63.4307 92.2156 62.4127C92.6659 61.3859 93.2974 60.5586 94.1101 59.9307C94.9303 59.2941 95.8478 58.9404 96.8626 58.8694C98.0479 58.7865 99.0553 58.9608 99.8849 59.3923C100.723 59.8232 101.375 60.4669 101.843 61.3234C102.31 62.1718 102.586 63.1926 102.669 64.386L102.774 65.8838L94.2256 66.4816L94.1933 66.545C94.2686 67.3882 94.4672 68.1289 94.7892 68.7672C95.1187 69.3968 95.5604 69.8798 96.1142 70.2164C96.668 70.5529 97.3143 70.6953 98.053 70.6437C98.8649 70.5869 99.5673 70.4236 100.16 70.1537C100.761 69.8751 101.27 69.5173 101.688 69.0801L102.735 70.5733C102.296 71.0608 101.698 71.4901 100.94 71.8612C100.191 72.2237 99.272 72.4429 98.1842 72.519ZM94.1675 64.6012L100.244 64.1763L100.222 63.8597C100.178 63.2264 100.024 62.6702 99.7625 62.1909C99.5081 61.7029 99.1477 61.3324 98.6814 61.0795C98.2225 60.8179 97.6603 60.7104 96.9946 60.7569C96.4588 60.7944 95.9828 60.9867 95.5665 61.334C95.1497 61.6731 94.818 62.1206 94.5713 62.6762C94.3246 63.2319 94.1805 63.8538 94.1389 64.542L94.1675 64.6012ZM105.01 71.7847L104.903 69.7364L105.402 69.6893C105.978 69.649 106.42 69.4386 106.728 69.0581C107.036 68.6695 107.234 68.0683 107.324 67.2543C107.413 66.4323 107.412 65.3596 107.319 64.0364L107.058 60.2979L105.049 60.0958L104.941 58.5493L116.193 57.7625L118.178 57.6237L118.286 59.1702L116.325 59.6499L116.983 69.063L118.992 69.2652L119.099 70.7995L112.73 71.2448L112.623 69.7105L114.584 69.2307L113.927 59.8299L109.458 60.1424L109.718 63.8686C109.9 66.4665 109.688 68.3984 109.083 69.6643C108.487 70.9298 107.356 71.6206 105.692 71.737L105.01 71.7847ZM128.419 61.4596C129.978 61.3506 131.219 61.6636 132.143 62.3984C133.067 63.1251 133.573 64.1217 133.662 65.3881C133.751 66.6627 133.386 67.7406 132.566 68.6218C131.755 69.5025 130.574 69.9971 129.024 70.1055L121.376 70.6403L121.269 69.1059L123.23 68.6262L122.572 59.2131L120.563 59.0109L120.455 57.4644L126.824 57.0191L126.932 58.5656L124.971 59.0454L125.155 61.6878L128.419 61.4596ZM128.892 68.2302C129.761 68.1695 130.382 67.8976 130.757 67.4146C131.138 66.9229 131.305 66.332 131.257 65.642C131.21 64.9763 130.963 64.4103 130.514 63.9441C130.065 63.4778 129.411 63.2748 128.55 63.3349L125.287 63.5631L125.629 68.4584L128.892 68.2302ZM142.47 73.0565L141.837 67.325L142.872 67.2527C143.186 66.8391 143.455 66.4328 143.68 66.0337C143.904 65.6264 144.094 65.1849 144.248 64.7091C144.402 64.2251 144.514 63.6667 144.584 63.0336C144.661 62.3919 144.698 61.6306 144.693 60.7499L144.6 57.6605L142.665 57.4654L142.557 55.9189L153.151 55.1781L155.136 55.0393L155.244 56.5858L153.283 57.0656L153.941 66.4786L155.695 66.356L155.853 72.1207L153.698 72.2714L153.427 68.3991L144.355 69.0334L144.626 72.9058L142.47 73.0565ZM145.636 67.0594L151.542 66.6464L150.901 57.4769L147.004 57.7494L147.092 60.5822C147.105 62.0497 146.981 63.3106 146.72 64.3649C146.468 65.4186 146.106 66.3168 145.636 67.0594ZM157.884 68.0874L157.777 66.0391L158.276 65.992C158.852 65.9517 159.294 65.7413 159.602 65.3608C159.909 64.9722 160.108 64.371 160.198 63.557C160.287 62.735 160.286 61.6623 160.193 60.3391L159.932 56.6007L157.923 56.3985L157.815 54.852L169.067 54.0652L171.052 53.9264L171.16 55.4729L169.199 55.9526L169.857 65.3657L171.866 65.5679L171.973 67.1022L165.604 67.5475L165.497 66.0132L167.458 65.5334L166.801 56.1326L162.331 56.4451L162.592 60.1713C162.774 62.7692 162.562 64.7011 161.957 65.967C161.36 67.2325 160.23 67.9233 158.566 68.0397L157.884 68.0874ZM173.86 66.9702L173.753 65.4359L175.464 65.0592L177.46 61.2242C176.603 60.9823 175.924 60.5525 175.424 59.9348C174.932 59.3166 174.657 58.5813 174.597 57.7288C174.542 56.9414 174.696 56.229 175.059 55.5918C175.423 54.9545 175.97 54.439 176.701 54.0453C177.432 53.6515 178.321 53.418 179.369 53.3448L186.919 52.8168L187.027 54.3634L185.066 54.8431L185.724 64.2562L187.733 64.4583L187.84 65.9927L181.471 66.438L181.364 64.9037L183.325 64.4239L183.098 61.1848L179.847 61.4121L177.087 66.7446L173.86 66.9702ZM179.557 59.5357L182.966 59.2973L182.665 54.9865L179.499 55.2079C178.63 55.2686 177.988 55.5338 177.572 56.0034C177.156 56.4649 176.968 56.992 177.01 57.5846C177.051 58.1691 177.284 58.6545 177.711 59.0407C178.146 59.4263 178.761 59.5913 179.557 59.5357ZM196.315 65.4L196.208 63.8657L198.169 63.3859L197.511 53.9729L195.502 53.7707L195.394 52.2242L197.379 52.0854L200.472 51.8691L205.46 61.6035L205.533 61.5983L209.13 51.2637L212.138 51.0533L214.123 50.9145L214.231 52.4611L212.27 52.9408L212.928 62.3539L214.937 62.556L215.044 64.0904L208.675 64.5357L208.568 63.0014L210.529 62.5216L210.021 55.2518L209.946 55.2325L206.544 64.6847L204.888 64.8005L200.117 55.724L200.046 55.7535L200.568 63.2182L202.577 63.4203L202.684 64.9547L196.315 65.4ZM223.05 63.7875C221.832 63.8727 220.754 63.6707 219.814 63.1817C218.874 62.6845 218.121 61.9581 217.557 61.0023C217.001 60.0459 216.677 58.9183 216.586 57.6194L216.549 57.0836C216.461 55.8334 216.639 54.6992 217.082 53.6812C217.532 52.6544 218.163 51.8271 218.976 51.1992C219.796 50.5627 220.714 50.2089 221.729 50.1379C222.914 50.0551 223.921 50.2294 224.751 50.6608C225.589 51.0917 226.241 51.7354 226.709 52.5919C227.176 53.4403 227.452 54.4612 227.535 55.6545L227.64 57.1523L219.092 57.7501L219.059 57.8135C219.135 58.6567 219.333 59.3974 219.655 60.0357C219.985 60.6653 220.426 61.1483 220.98 61.4849C221.534 61.8214 222.18 61.9639 222.919 61.9122C223.731 61.8554 224.433 61.6921 225.026 61.4222C225.627 61.1436 226.136 60.7858 226.554 60.3487L227.601 61.8418C227.162 62.3293 226.564 62.7587 225.806 63.1298C225.057 63.4922 224.138 63.7114 223.05 63.7875ZM219.033 55.8697L225.11 55.4448L225.088 55.1282C225.044 54.495 224.89 53.9387 224.628 53.4594C224.374 52.9714 224.014 52.6009 223.547 52.348C223.089 52.0864 222.526 51.9789 221.861 52.0254C221.325 52.0629 220.849 52.2553 220.433 52.6025C220.016 52.9417 219.684 53.3891 219.437 53.9447C219.191 54.5004 219.046 55.1223 219.005 55.8105L219.033 55.8697ZM230.217 63.0294L230.11 61.495L232.071 61.0153L231.412 51.6022L229.404 51.4001L229.296 49.8535L235.664 49.4082L235.772 50.9547L233.811 51.4345L234.078 55.246L239.935 54.8364L239.669 51.0249L237.66 50.8227L237.552 49.2762L239.537 49.1374L241.948 48.9688L243.933 48.83L244.041 50.3765L242.08 50.8563L242.738 60.2693L244.747 60.4715L244.854 62.0059L238.473 62.4521L238.366 60.9177L240.327 60.438L240.066 56.7117L234.209 57.1213L234.47 60.8475L236.478 61.0497L236.586 62.584L230.217 63.0294ZM246.827 61.8679L246.719 60.3336L248.431 59.9569L250.426 56.1219C249.569 55.88 248.891 55.4502 248.391 54.8325C247.899 54.2143 247.623 53.4789 247.563 52.6265C247.508 51.8391 247.662 51.1267 248.026 50.4895C248.389 49.8522 248.936 49.3367 249.667 48.943C250.399 48.5492 251.288 48.3157 252.335 48.2425L259.885 47.7145L259.993 49.261L258.032 49.7408L258.69 59.1539L260.699 59.356L260.806 60.8904L254.438 61.3357L254.33 59.8014L256.291 59.3216L256.065 56.0824L252.813 56.3098L250.054 61.6423L246.827 61.8679ZM252.523 54.4334L255.933 54.195L255.631 49.8842L252.465 50.1056C251.597 50.1663 250.954 50.4315 250.539 50.9011C250.122 51.3626 249.935 51.8897 249.976 52.4823C250.017 53.0668 250.251 53.5522 250.677 53.9384C251.112 54.324 251.728 54.489 252.523 54.4334ZM34.2271 108.812L34.1198 107.278L36.0808 106.798L35.4226 97.3853L33.4139 97.1831L33.3057 95.6366L39.6745 95.1913L39.7826 96.7378L37.8215 97.2176L38.0881 101.029L43.9453 100.619L43.6788 96.808L41.6701 96.6058L41.5619 95.0593L43.5468 94.9205L45.9579 94.7519L47.9428 94.6131L48.051 96.1596L46.0899 96.6394L46.7481 106.052L48.7569 106.255L48.8642 107.789L42.4833 108.235L42.376 106.701L44.337 106.221L44.0765 102.495L38.2192 102.904L38.4798 106.631L40.4885 106.833L40.5958 108.367L34.2271 108.812ZM56.9678 107.479C55.7501 107.564 54.6713 107.362 53.7316 106.873C52.7913 106.376 52.0389 105.65 51.4745 104.694C50.9181 103.738 50.5945 102.61 50.5037 101.311L50.4662 100.775C50.3788 99.5251 50.5565 98.391 50.9992 97.3729C51.4496 96.3462 52.081 95.5189 52.8937 94.891C53.7139 94.2544 54.6314 93.9007 55.6462 93.8297C56.8315 93.7468 57.8389 93.9211 58.6686 94.3526C59.5063 94.7835 60.1591 95.4271 60.6269 96.2836C61.0941 97.132 61.3694 98.1529 61.4529 99.3463L61.5576 100.844L53.0092 101.442L52.9769 101.505C53.0522 102.348 53.2508 103.089 53.5728 103.727C53.9024 104.357 54.344 104.84 54.8978 105.177C55.4516 105.513 56.0979 105.656 56.8367 105.604C57.6485 105.547 58.3509 105.384 58.9438 105.114C59.5444 104.835 60.0537 104.478 60.4718 104.04L61.5184 105.534C61.0794 106.021 60.4812 106.45 59.724 106.822C58.9744 107.184 58.0556 107.403 56.9678 107.479ZM52.9511 99.5614L59.0276 99.1365L59.0054 98.8199C58.9611 98.1867 58.808 97.6304 58.5461 97.1511C58.2917 96.6631 57.9313 96.2927 57.465 96.0398C57.0061 95.7782 56.4439 95.6706 55.7782 95.7172C55.2424 95.7546 54.7664 95.947 54.3501 96.2943C53.9333 96.6334 53.6016 97.0808 53.3549 97.6365C53.1082 98.1922 52.9641 98.8141 52.9225 99.5023L52.9511 99.5614ZM70.3449 106.287L70.2376 104.753L72.1987 104.273L71.5405 94.8597L69.5317 94.6575L69.4236 93.111L84.0607 92.0875L84.1688 93.634L82.2078 94.1138L82.866 103.527L84.8748 103.729L84.982 105.263L78.6133 105.709L78.506 104.174L80.4671 103.695L79.8097 94.2937L73.9403 94.7041L74.5976 104.105L76.6064 104.307L76.7137 105.842L70.3449 106.287ZM93.0369 104.957C91.8192 105.042 90.748 104.832 89.8234 104.325C88.9063 103.81 88.1731 103.066 87.6238 102.093C87.0738 101.112 86.7534 99.9714 86.6626 98.6725L86.6439 98.4046C86.5531 97.1057 86.7119 95.9362 87.1205 94.896C87.5285 93.8478 88.1508 93.0048 88.9872 92.3671C89.8318 91.7288 90.8548 91.3677 92.0563 91.2837C93.2741 91.1985 94.3415 91.4135 95.2585 91.9285C96.1837 92.4431 96.921 93.1869 97.4704 94.1601C98.0197 95.1332 98.3401 96.2733 98.4315 97.5804L98.4502 97.8483C98.5416 99.1553 98.3833 100.333 97.9753 101.381C97.5667 102.421 96.9439 103.256 96.1069 103.886C95.2699 104.515 94.2466 104.872 93.0369 104.957ZM92.9058 103.082C93.6689 103.028 94.2917 102.777 94.7742 102.327C95.2643 101.869 95.6139 101.269 95.8232 100.528C96.04 99.7789 96.116 98.9415 96.0513 98.016L96.0326 97.7481C95.9679 96.8226 95.7763 96.008 95.4579 95.3042C95.147 94.5917 94.7173 94.0467 94.1688 93.669C93.6197 93.2831 92.9595 93.1172 92.1883 93.1711C91.4252 93.2245 90.7986 93.4804 90.3086 93.9389C89.818 94.3893 89.4683 94.9888 89.2596 95.7376C89.0504 96.4783 88.9781 97.3114 89.0428 98.2369L89.0615 98.5048C89.1263 99.4303 89.3141 100.249 89.6249 100.962C89.9352 101.666 90.3649 102.211 90.914 102.597C91.4706 102.974 92.1346 103.136 92.9058 103.082ZM103.869 103.943L103.762 102.408L105.723 101.929L105.063 92.4911L102.286 92.6853L102.248 94.756L100.202 94.8991L99.9277 90.978L112.397 90.106L112.671 94.0271L110.613 94.171L110.287 92.1258L107.462 92.3234L108.122 101.761L110.13 101.963L110.238 103.497L103.869 103.943ZM115.232 108.239L115.123 106.692L116.963 106.221L115.951 91.7542L113.942 91.5521L113.834 90.0055L117.877 89.7228L118.209 91.3149C118.605 90.6835 119.105 90.1876 119.708 89.8273C120.319 89.4664 121.038 89.257 121.866 89.1991C122.954 89.1231 123.904 89.3544 124.717 89.8931C125.529 90.4237 126.175 91.2065 126.656 92.2416C127.135 93.2686 127.425 94.4924 127.524 95.9131L127.542 96.1688C127.631 97.4353 127.501 98.5579 127.154 99.5367C126.814 100.515 126.282 101.299 125.556 101.888C124.83 102.469 123.931 102.797 122.859 102.872C122.047 102.928 121.324 102.844 120.688 102.62C120.06 102.386 119.512 102.017 119.044 101.511L119.362 106.053L121.48 106.248L121.588 107.794L115.232 108.239ZM121.985 101.048C123.122 100.969 123.953 100.495 124.48 99.6257C125.007 98.7568 125.224 97.6607 125.131 96.3374L125.113 96.0817C125.043 95.075 124.851 94.1992 124.538 93.4543C124.224 92.7012 123.792 92.1237 123.242 91.7216C122.7 91.319 122.043 91.1447 121.272 91.1986C120.59 91.2463 120.016 91.4414 119.551 91.7839C119.085 92.1265 118.721 92.5762 118.458 93.133L118.907 99.5504C119.245 100.073 119.664 100.468 120.164 100.735C120.672 100.993 121.279 101.098 121.985 101.048ZM136.851 101.893C135.633 101.978 134.554 101.777 133.615 101.287C132.674 100.79 131.922 100.064 131.358 99.1081C130.801 98.1517 130.478 97.0241 130.387 95.7252L130.349 95.1894C130.262 93.9392 130.44 92.805 130.882 91.787C131.333 90.7602 131.964 89.9329 132.777 89.305C133.597 88.6685 134.515 88.3147 135.529 88.2437C136.715 88.1608 137.722 88.3351 138.552 88.7666C139.389 89.1975 140.042 89.8412 140.51 90.6977C140.977 91.5461 141.253 92.5669 141.336 93.7603L141.441 95.2581L132.892 95.8559L132.86 95.9193C132.935 96.7625 133.134 97.5032 133.456 98.1415C133.785 98.7711 134.227 99.2541 134.781 99.5907C135.335 99.9272 135.981 100.07 136.72 100.018C137.532 99.9612 138.234 99.7979 138.827 99.528C139.427 99.2494 139.937 98.8916 140.355 98.4544L141.402 99.9476C140.962 100.435 140.364 100.864 139.607 101.236C138.857 101.598 137.939 101.817 136.851 101.893ZM132.834 93.9755L138.911 93.5506L138.888 93.234C138.844 92.6007 138.691 92.0445 138.429 91.5652C138.175 91.0772 137.814 90.7067 137.348 90.4538C136.889 90.1922 136.327 90.0847 135.661 90.1312C135.125 90.1687 134.649 90.361 134.233 90.7083C133.816 91.0475 133.485 91.4949 133.238 92.0505C132.991 92.6062 132.847 93.2281 132.806 93.9163L132.834 93.9755ZM150.039 100.971C148.829 101.056 147.763 100.857 146.84 100.375C145.925 99.8842 145.194 99.1725 144.647 98.24C144.1 97.2993 143.783 96.1998 143.695 94.9414L143.575 93.2366C143.454 91.5074 143.593 89.9926 143.992 88.6921C144.398 87.391 145.025 86.3234 145.873 85.4891C146.72 84.6549 147.748 84.0731 148.957 83.7439C149.966 83.4856 150.69 83.2107 151.126 82.9192C151.571 82.627 151.772 82.1846 151.731 81.592L153.582 81.4626L153.611 81.5339C153.677 82.2472 153.641 82.833 153.502 83.2915C153.37 83.7493 153.136 84.1247 152.797 84.4176C152.459 84.7104 152.019 84.9533 151.478 85.1461C150.936 85.339 150.293 85.5268 149.547 85.7094C148.817 85.8829 148.159 86.1614 147.574 86.5449C146.996 86.9198 146.529 87.4134 146.172 88.0257C145.823 88.6293 145.617 89.3657 145.556 90.2347L145.609 90.2922C146.052 89.7472 146.624 89.2872 147.323 88.9119C148.031 88.5361 148.795 88.3195 149.615 88.2622C150.727 88.1844 151.707 88.3728 152.555 88.8275C153.402 89.2822 154.077 89.9448 154.578 90.8152C155.087 91.677 155.382 92.6884 155.463 93.8493L155.482 94.1172C155.57 95.3755 155.409 96.5085 154.998 97.5162C154.587 98.5157 153.958 99.3225 153.111 99.9364C152.273 100.542 151.248 100.887 150.039 100.971ZM149.908 99.0958C150.671 99.0424 151.299 98.8027 151.791 98.3767C152.283 97.9426 152.635 97.3755 152.847 96.6754C153.066 95.9666 153.145 95.1698 153.083 94.2849L153.065 94.017C153.01 93.2377 152.827 92.5489 152.516 91.9506C152.205 91.3524 151.777 90.8928 151.233 90.5719C150.688 90.2511 150.03 90.1176 149.259 90.1715C148.496 90.2249 147.867 90.4483 147.373 90.8419C146.886 91.2348 146.535 91.7489 146.318 92.384C146.101 93.0192 146.02 93.7264 146.075 94.5058L146.094 94.7737C146.155 95.6586 146.34 96.437 146.648 97.1088C146.956 97.7726 147.383 98.2852 147.931 98.6467C148.477 99 149.136 99.1497 149.908 99.0958ZM157.997 100.158L157.89 98.6233L159.851 98.1435L159.193 88.7305L157.184 88.5283L157.076 86.9818L161.447 86.6761L163.432 86.5373L163.54 88.0838L161.579 88.5636L162.1 96.0039L162.174 96.0231L167.329 86.2648L169.728 86.0971L171.713 85.9583L171.821 87.5048L169.86 87.9845L170.518 97.3976L172.527 97.5998L172.634 99.1341L166.265 99.5794L166.158 98.0451L168.119 97.5653L167.598 90.1128L167.523 90.0936L162.369 99.8519L157.997 100.158ZM177.785 98.7739L177.678 97.2396L179.639 96.7598L178.979 87.3224L176.203 87.5165L176.164 89.5873L174.118 89.7303L173.844 85.8092L186.313 84.9373L186.588 88.8584L184.53 89.0023L184.203 86.9571L181.378 87.1546L182.038 96.5921L184.047 96.7942L184.154 98.3286L177.785 98.7739ZM194.206 97.8826C192.988 97.9678 191.909 97.7658 190.97 97.2768C190.029 96.7797 189.277 96.0532 188.713 95.0974C188.156 94.1411 187.833 93.0134 187.742 91.7145L187.704 91.1787C187.617 89.9285 187.795 88.7944 188.237 87.7763C188.688 86.7496 189.319 85.9222 190.132 85.2944C190.952 84.6578 191.87 84.304 192.884 84.2331C194.07 84.1502 195.077 84.3245 195.907 84.7559C196.744 85.1868 197.397 85.8305 197.865 86.687C198.332 87.5354 198.608 88.5563 198.691 89.7497L198.796 91.2475L190.247 91.8452L190.215 91.9087C190.29 92.7518 190.489 93.4925 190.811 94.1308C191.14 94.7604 191.582 95.2435 192.136 95.58C192.69 95.9165 193.336 96.059 194.075 96.0073C194.887 95.9506 195.589 95.7872 196.182 95.5173C196.782 95.2388 197.292 94.8809 197.71 94.4438L198.757 95.9369C198.318 96.4245 197.719 96.8538 196.962 97.2249C196.212 97.5873 195.294 97.8066 194.206 97.8826ZM190.189 89.9648L196.266 89.5399L196.244 89.2233C196.199 88.5901 196.046 88.0338 195.784 87.5545C195.53 87.0665 195.169 86.696 194.703 86.4431C194.244 86.1815 193.682 86.074 193.016 86.1206C192.481 86.158 192.005 86.3504 191.588 86.6976C191.171 87.0368 190.84 87.4842 190.593 88.0399C190.346 88.5955 190.202 89.2175 190.161 89.9056L190.189 89.9648ZM201.032 97.1484L200.925 95.1L201.424 95.0529C202 95.0126 202.442 94.8022 202.75 94.4218C203.057 94.0332 203.256 93.4319 203.346 92.618C203.435 91.7959 203.434 90.7233 203.341 89.4L203.08 85.6616L201.071 85.4594L200.963 83.9129L212.215 83.1261L214.199 82.9873L214.308 84.5338L212.347 85.0136L213.005 94.4266L215.014 94.6288L215.121 96.1631L208.752 96.6085L208.645 95.0741L210.606 94.5944L209.948 85.1935L205.479 85.506L205.74 89.2323C205.922 91.8301 205.71 93.762 205.105 95.028C204.508 96.2934 203.378 96.9843 201.714 97.1007L201.032 97.1484ZM224.441 86.8233C225.999 86.7143 227.241 87.0272 228.165 87.762C229.089 88.4888 229.595 89.4854 229.684 90.7518C229.773 92.0263 229.408 93.1042 228.588 93.9855C227.777 94.8662 226.596 95.3607 225.045 95.4692L217.398 96.0039L217.291 94.4696L219.252 93.9898L218.593 84.5768L216.585 84.3746L216.477 82.8281L222.845 82.3827L222.953 83.9292L220.992 84.409L221.177 87.0515L224.441 86.8233ZM224.914 93.5939C225.783 93.5331 226.404 93.2612 226.778 92.7782C227.16 92.2865 227.327 91.6957 227.278 91.0056C227.232 90.3399 226.984 89.774 226.536 89.3077C226.087 88.8414 225.432 88.6384 224.572 88.6986L221.308 88.9268L221.651 93.8221L224.914 93.5939ZM238.367 94.5376L238.26 93.0033L240.221 92.5235L239.563 83.1104L237.554 82.9083L237.446 81.3618L239.431 81.223L242.524 81.0067L247.512 90.741L247.585 90.7359L251.182 80.4012L254.19 80.1909L256.175 80.0521L256.283 81.5986L254.322 82.0784L254.98 91.4915L256.989 91.6936L257.096 93.228L250.727 93.6733L250.62 92.139L252.581 91.6592L252.073 84.3894L251.998 84.3701L248.596 93.8223L246.94 93.9381L242.169 84.8616L242.098 84.8911L242.62 92.3557L244.629 92.5579L244.736 94.0922L238.367 94.5376ZM265.053 92.9285C263.836 93.0136 262.765 92.803 261.84 92.2966C260.923 91.7815 260.19 91.0374 259.64 90.0643C259.09 89.083 258.77 87.9429 258.679 86.644L258.66 86.3761C258.57 85.0772 258.728 83.9076 259.137 82.8675C259.545 81.8192 260.167 80.9762 261.004 80.3385C261.848 79.7002 262.871 79.3391 264.073 79.2551C265.291 79.1699 266.358 79.3849 267.275 79.9C268.2 80.4145 268.937 81.1583 269.487 82.1315C270.036 83.1047 270.357 84.2448 270.448 85.5518L270.467 85.8197C270.558 87.1267 270.4 88.3044 269.992 89.3526C269.583 90.3928 268.96 91.2277 268.123 91.8572C267.286 92.4868 266.263 92.8439 265.053 92.9285ZM264.922 91.0532C265.685 90.9998 266.308 90.7482 266.791 90.2985C267.281 89.84 267.63 89.2404 267.84 88.4997C268.056 87.7503 268.133 86.9129 268.068 85.9874L268.049 85.7195C267.984 84.7941 267.793 83.9794 267.474 83.2757C267.163 82.5632 266.734 82.0181 266.185 81.6404C265.636 81.2546 264.976 81.0886 264.205 81.1426C263.442 81.1959 262.815 81.4519 262.325 81.9103C261.834 82.3607 261.485 82.9603 261.276 83.7091C261.067 84.4498 260.995 85.2828 261.059 86.2083L261.078 86.4762C261.143 87.4017 261.331 88.2207 261.641 88.9331C261.952 89.6375 262.381 90.1826 262.93 90.5684C263.487 90.9455 264.151 91.1071 264.922 91.0532ZM279.544 91.9152C278.327 92.0003 277.248 91.7984 276.308 91.3094C275.368 90.8122 274.616 90.0858 274.051 89.13C273.495 88.1736 273.171 87.046 273.08 85.7471L273.043 85.2113C272.955 83.9611 273.133 82.8269 273.576 81.8089C274.026 80.7821 274.658 79.9548 275.47 79.3269C276.291 78.6903 277.208 78.3366 278.223 78.2656C279.408 78.1827 280.416 78.357 281.245 78.7885C282.083 79.2194 282.736 79.8631 283.204 80.7196C283.671 81.568 283.946 82.5888 284.03 83.7822L284.134 85.28L275.586 85.8778L275.554 85.9412C275.629 86.7844 275.827 87.5251 276.149 88.1634C276.479 88.793 276.921 89.276 277.474 89.6126C278.028 89.9491 278.675 90.0915 279.413 90.0399C280.225 89.9831 280.927 89.8198 281.52 89.5499C282.121 89.2713 282.63 88.9135 283.048 88.4763L284.095 89.9695C283.656 90.457 283.058 90.8863 282.301 91.2574C281.551 91.6199 280.632 91.8391 279.544 91.9152ZM275.528 83.9974L281.604 83.5725L281.582 83.2559C281.538 82.6226 281.385 82.0664 281.123 81.5871C280.868 81.0991 280.508 80.7286 280.042 80.4757C279.583 80.2141 279.021 80.1066 278.355 80.1531C277.819 80.1906 277.343 80.3829 276.927 80.7302C276.51 81.0693 276.178 81.5168 275.932 82.0724C275.685 82.6281 275.541 83.25 275.499 83.9382L275.528 83.9974ZM286.711 91.1571L286.604 89.6227L288.565 89.143L287.907 79.7299L285.898 79.5277L285.79 77.9812L290.161 77.6755L292.146 77.5367L292.254 79.0833L290.293 79.563L290.814 87.0033L290.888 87.0226L296.043 77.2642L298.442 77.0965L300.427 76.9577L300.535 78.5042L298.574 78.984L299.232 88.397L301.241 88.5992L301.348 90.1335L294.98 90.5789L294.872 89.0445L296.833 88.5648L296.312 81.1123L296.237 81.093L291.083 90.8514L286.711 91.1571ZM293.02 75.1507C291.842 75.233 290.895 74.9811 290.177 74.395C289.458 73.8008 289.063 72.9963 288.992 71.9815L289.012 71.9067L290.838 71.779C290.879 72.3635 291.067 72.8276 291.401 73.1714C291.743 73.5146 292.247 73.6629 292.912 73.6163C293.562 73.5709 294.032 73.3545 294.323 72.967C294.614 72.5796 294.739 72.0936 294.698 71.5091L296.537 71.3805L296.567 71.4518C296.629 72.4672 296.346 73.3191 295.717 74.0075C295.096 74.6873 294.197 75.0684 293.02 75.1507ZM309.921 89.5341L309.814 87.9997L311.775 87.52L311.117 78.1069L309.108 77.9047L309 76.3582L323.637 75.3347L323.745 76.8812L321.784 77.361L322.442 86.774L324.451 86.9762L324.558 88.5105L318.189 88.9559L318.082 87.4215L320.043 86.9418L319.386 77.5409L313.516 77.9513L314.174 87.3522L316.182 87.5544L316.29 89.0887L309.921 89.5341ZM326.629 93.4562L326.521 91.9097L328.361 91.4385L327.349 76.9718L325.34 76.7697L325.232 75.2232L329.275 74.9405L329.606 76.5325C330.003 75.9011 330.503 75.4053 331.106 75.0449C331.717 74.6841 332.436 74.4747 333.264 74.4168C334.352 74.3407 335.302 74.572 336.115 75.1107C336.927 75.6413 337.573 76.4241 338.054 77.4592C338.533 78.4862 338.823 79.71 338.922 81.1307L338.94 81.3864C339.029 82.6529 338.899 83.7755 338.551 84.7543C338.212 85.7325 337.679 86.5162 336.954 87.1053C336.228 87.6864 335.329 88.0144 334.257 88.0893C333.445 88.1461 332.721 88.0621 332.086 87.8373C331.458 87.6039 330.91 87.2343 330.442 86.7286L330.759 91.2707L332.878 91.4652L332.986 93.0117L326.629 93.4562ZM333.383 86.2659C334.52 86.1865 335.351 85.7123 335.878 84.8433C336.404 83.9744 336.621 82.8783 336.529 81.555L336.511 81.2993C336.441 80.2927 336.249 79.4169 335.936 78.6719C335.622 77.9189 335.19 77.3413 334.64 76.9392C334.098 76.5366 333.441 76.3623 332.67 76.4162C331.988 76.4639 331.414 76.659 330.949 77.0016C330.483 77.3441 330.119 77.7938 329.856 78.3506L330.305 84.768C330.643 85.291 331.062 85.6859 331.562 85.9527C332.07 86.2109 332.677 86.3153 333.383 86.2659ZM348.2 87.1143C346.982 87.1995 345.911 86.9888 344.986 86.4824C344.069 85.9674 343.336 85.2232 342.787 84.2501C342.237 83.2688 341.917 82.1287 341.826 80.8298L341.807 80.5619C341.716 79.263 341.875 78.0934 342.284 77.0533C342.692 76.005 343.314 75.162 344.15 74.5243C344.995 73.8861 346.018 73.5249 347.219 73.4409C348.437 73.3558 349.505 73.5707 350.422 74.0858C351.347 74.6003 352.084 75.3442 352.633 76.3173C353.183 77.2905 353.503 78.4306 353.595 79.7376L353.613 80.0055C353.705 81.3125 353.546 82.4902 353.138 83.5385C352.73 84.5786 352.107 85.4135 351.27 86.0431C350.433 86.6726 349.41 87.0297 348.2 87.1143ZM348.069 85.239C348.832 85.1856 349.455 84.9341 349.937 84.4843C350.427 84.0258 350.777 83.4262 350.986 82.6855C351.203 81.9362 351.279 81.0987 351.214 80.1733L351.196 79.9054C351.131 78.9799 350.939 78.1653 350.621 77.4615C350.31 76.749 349.88 76.2039 349.332 75.8262C348.783 75.4404 348.123 75.2745 347.351 75.3284C346.588 75.3818 345.962 75.6377 345.472 76.0962C344.981 76.5465 344.631 77.1461 344.423 77.8949C344.213 78.6356 344.141 79.4687 344.206 80.3941L344.225 80.662C344.289 81.5875 344.477 82.4065 344.788 83.119C345.098 83.8233 345.528 84.3684 346.077 84.7542C346.634 85.1313 347.298 85.2929 348.069 85.239ZM355.759 90.2201L355.126 84.4886L356.161 84.4162C356.475 84.0027 356.744 83.5963 356.969 83.1972C357.194 82.7899 357.383 82.3484 357.537 81.8726C357.691 81.3887 357.803 80.8302 357.873 80.1971C357.95 79.5554 357.987 78.7942 357.982 77.9134L357.889 74.8241L355.954 74.629L355.846 73.0824L366.44 72.3416L368.425 72.2028L368.533 73.7493L366.572 74.2291L367.23 83.6421L368.984 83.5195L369.142 89.2842L366.987 89.435L366.716 85.5626L357.644 86.197L357.915 90.0693L355.759 90.2201ZM358.925 84.2229L364.831 83.8099L364.19 74.6404L360.293 74.9129L360.381 77.7457C360.394 79.2132 360.27 80.4741 360.01 81.5284C359.757 82.5821 359.395 83.4803 358.925 84.2229ZM374.468 90.368C374.281 90.3811 374.036 90.3738 373.732 90.3461C373.429 90.3265 373.194 90.3021 373.029 90.2728L373.141 88.3683C373.28 88.3749 373.471 88.3737 373.716 88.3648C373.96 88.364 374.127 88.3605 374.217 88.3543C374.728 88.3185 375.128 88.0947 375.418 87.6829C375.715 87.2705 375.978 86.7178 376.207 86.0247L376.683 84.5964L371.238 73.756L369.812 73.6599L369.704 72.1134L375.232 71.7268L375.34 73.2733L373.762 73.6284L376.792 80.0367L377.533 81.7102L377.606 81.7051L380.07 73.1873L378.372 73.0613L378.264 71.5148L383.683 71.1359L383.791 72.6824L382.441 72.9726L378.194 86.7912C377.995 87.4415 377.738 88.0264 377.424 88.5461C377.118 89.0732 376.723 89.4965 376.24 89.8158C375.765 90.1346 375.174 90.3186 374.468 90.368ZM386.029 84.2121L385.922 82.6777L387.883 82.198L387.225 72.7849L385.216 72.5828L385.108 71.0362L391.477 70.5909L391.585 72.1374L389.624 72.6172L389.881 76.2947L391.147 76.2062L393.641 72.324C394.088 71.5993 394.535 71.0419 394.981 70.6518C395.435 70.2611 395.958 70.045 396.55 70.0036C396.924 69.9775 397.236 70.0046 397.486 70.085C397.736 70.1573 398.022 70.28 398.344 70.4533L398.117 72.1089C397.764 72.0765 397.559 72.0582 397.501 72.0541C397.452 72.0493 397.346 72.0527 397.184 72.064C396.884 72.085 396.595 72.2153 396.318 72.455C396.049 72.694 395.816 72.9714 395.618 73.2871L393.303 76.7651L397.81 81.5405L399.524 81.7266L399.631 83.2609L396.429 83.4849L391.581 78.2071L390.022 78.3161L390.282 82.0302L392.291 82.2324L392.398 83.7667L386.029 84.2121ZM413.263 86.2357L412.99 82.3268L401.092 83.1587L400.985 81.6244L402.946 81.1446L402.288 71.7316L400.279 71.5294L400.171 69.9829L406.54 69.5376L406.648 71.0841L404.687 71.5638L405.345 80.9769L411.215 80.5665L410.556 71.1534L408.548 70.9512L408.44 69.4047L414.808 68.9594L414.916 70.5059L412.956 70.9978L413.614 80.3987L415.233 80.2855L415.406 86.0859L413.263 86.2357ZM418.007 81.976L417.899 80.4416L419.86 79.9619L419.202 70.5488L417.194 70.3467L417.085 68.8001L421.457 68.4945L423.442 68.3557L423.55 69.9022L421.589 70.3819L422.109 77.8223L422.184 77.8415L427.339 68.0832L429.738 67.9154L431.722 67.7766L431.831 69.3231L429.87 69.8029L430.528 79.2159L432.537 79.4181L432.644 80.9525L426.275 81.3978L426.168 79.8635L428.129 79.3837L427.608 71.9312L427.533 71.9119L422.378 81.6703L418.007 81.976ZM435.006 80.7873L434.899 79.2529L436.86 78.7732L436.202 69.3601L434.193 69.1579L434.085 67.6114L438.457 67.3057L440.441 67.1669L440.55 68.7134L438.589 69.1932L439.109 76.6335L439.184 76.6528L444.338 66.8944L446.737 66.7267L448.722 66.5879L448.83 68.1344L446.869 68.6142L447.527 78.0272L449.536 78.2294L449.643 79.7637L443.275 80.2091L443.167 78.6747L445.128 78.195L444.607 70.7425L444.532 70.7232L439.378 80.4816L435.006 80.7873ZM452.721 83.3542L451.306 82.5476C451.647 81.9364 451.894 81.3195 452.046 80.697C452.198 80.0746 452.25 79.4224 452.203 78.7404L452.073 76.8895L454.472 76.7217L454.599 78.5361C454.655 79.3317 454.514 80.1777 454.177 81.0742C453.84 81.9707 453.355 82.7307 452.721 83.3542ZM36.4593 140.735L36.352 139.2L38.313 138.72L37.6548 129.307L35.6461 129.105L35.5379 127.559L41.9067 127.113L42.0148 128.66L40.0537 129.14L40.3203 132.951L46.1776 132.542L45.911 128.73L43.9023 128.528L43.7941 126.981L45.779 126.843L48.1901 126.674L50.175 126.535L50.2832 128.082L48.3221 128.561L48.9804 137.974L50.9891 138.177L51.0964 139.711L44.7155 140.157L44.6082 138.623L46.5693 138.143L46.3087 134.417L40.4514 134.826L40.712 138.553L42.7207 138.755L42.828 140.289L36.4593 140.735ZM59.2 139.401C57.9823 139.486 56.9035 139.285 55.9638 138.795C55.0235 138.298 54.2712 137.572 53.7067 136.616C53.1503 135.66 52.8267 134.532 52.7359 133.233L52.6985 132.697C52.611 131.447 52.7887 130.313 53.2315 129.295C53.6818 128.268 54.3133 127.441 55.1259 126.813C55.9461 126.176 56.8636 125.823 57.8784 125.752C59.0637 125.669 60.0711 125.843 60.9008 126.275C61.7385 126.706 62.3913 127.349 62.8591 128.206C63.3263 129.054 63.6016 130.075 63.6851 131.268L63.7898 132.766L55.2414 133.364L55.2091 133.427C55.2844 134.271 55.483 135.011 55.805 135.649C56.1346 136.279 56.5762 136.762 57.13 137.099C57.6838 137.435 58.3301 137.578 59.0689 137.526C59.8807 137.469 60.5831 137.306 61.176 137.036C61.7766 136.757 62.2859 136.4 62.704 135.962L63.7506 137.456C63.3116 137.943 62.7134 138.372 61.9562 138.744C61.2066 139.106 60.2878 139.325 59.2 139.401ZM55.1833 131.483L61.2598 131.059L61.2376 130.742C61.1934 130.109 61.0402 129.552 60.7783 129.073C60.5239 128.585 60.1635 128.215 59.6972 127.962C59.2384 127.7 58.6761 127.593 58.0104 127.639C57.4746 127.677 56.9986 127.869 56.5823 128.216C56.1655 128.555 55.8338 129.003 55.5871 129.559C55.3404 130.114 55.1963 130.736 55.1547 131.424L55.1833 131.483ZM78.2696 138.068C77.0763 138.151 76.0178 137.948 75.0944 137.458C74.1703 136.959 73.4301 136.232 72.8737 135.276C72.3174 134.319 71.9938 133.192 71.903 131.893L71.8672 131.381C71.7798 130.131 71.9369 128.994 72.3385 127.971C72.7401 126.948 73.3632 126.117 74.2077 125.479C75.0523 124.84 76.0875 124.478 77.3134 124.393C78.3769 124.318 79.3186 124.428 80.1386 124.721C80.9667 125.014 81.674 125.446 82.2605 126.017L82.5428 129.179L80.6675 129.31L80.0925 127.037C79.7966 126.772 79.4357 126.569 79.0098 126.428C78.5838 126.286 78.0908 126.235 77.5306 126.274C76.8162 126.324 76.2018 126.579 75.6874 127.039C75.1811 127.499 74.8025 128.093 74.5515 128.82C74.3005 129.547 74.2054 130.345 74.2661 131.214L74.3019 131.725C74.3689 132.683 74.5651 133.506 74.8905 134.193C75.224 134.879 75.6642 135.399 76.211 135.752C76.7654 136.097 77.4038 136.244 78.1263 136.193C78.9381 136.137 79.5963 135.866 80.1009 135.382C80.6055 134.898 80.8914 134.262 80.9587 133.475L83.1141 133.324L83.1436 133.395C83.1558 134.153 82.9819 134.875 82.622 135.561C82.262 136.247 81.7188 136.819 80.9922 137.278C80.2731 137.728 79.3656 137.991 78.2696 138.068ZM88.5362 142.44C88.3495 142.453 88.1042 142.446 87.8004 142.418C87.4972 142.399 87.263 142.374 87.0978 142.345L87.2094 140.441C87.3485 140.447 87.5402 140.446 87.7843 140.437C88.029 140.436 88.1959 140.433 88.2852 140.427C88.7967 140.391 89.1971 140.167 89.4865 139.755C89.7839 139.343 90.0471 138.79 90.276 138.097L90.7513 136.669L85.3065 125.828L83.8803 125.732L83.7722 124.186L89.3007 123.799L89.4088 125.346L87.8306 125.701L90.8607 132.109L91.6018 133.783L91.6749 133.778L94.1385 125.26L92.441 125.134L92.3328 123.587L97.7517 123.208L97.8599 124.755L96.5097 125.045L92.2631 138.864C92.0638 139.514 91.8069 140.099 91.4925 140.618C91.1867 141.146 90.7921 141.569 90.3086 141.888C89.8333 142.207 89.2425 142.391 88.5362 142.44ZM99.5406 140.215L98.9073 134.483L99.9423 134.411C100.256 133.997 100.525 133.591 100.75 133.192C100.975 132.785 101.164 132.343 101.319 131.867C101.472 131.383 101.584 130.825 101.654 130.192C101.732 129.55 101.768 128.789 101.764 127.908L101.67 124.819L99.7352 124.624L99.627 123.077L110.221 122.336L112.206 122.198L112.314 123.744L110.353 124.224L111.012 133.637L112.765 133.514L112.923 139.279L110.768 139.43L110.497 135.557L101.425 136.192L101.696 140.064L99.5406 140.215ZM102.707 134.218L108.613 133.805L107.971 124.635L104.075 124.908L104.163 127.74C104.175 129.208 104.052 130.469 103.791 131.523C103.538 132.577 103.177 133.475 102.707 134.218ZM122.338 126.041C123.897 125.932 125.138 126.245 126.062 126.98C126.986 127.707 127.492 128.703 127.581 129.97C127.67 131.244 127.305 132.322 126.485 133.203C125.674 134.084 124.493 134.579 122.942 134.687L115.295 135.222L115.188 133.687L117.149 133.208L116.491 123.795L114.482 123.592L114.374 122.046L120.742 121.601L120.851 123.147L118.89 123.627L119.074 126.269L122.338 126.041ZM122.811 132.812C123.68 132.751 124.301 132.479 124.675 131.996C125.057 131.504 125.224 130.914 125.176 130.224C125.129 129.558 124.881 128.992 124.433 128.526C123.984 128.059 123.33 127.856 122.469 127.916L119.205 128.145L119.548 133.04L122.811 132.812ZM129.664 134.217L129.557 132.683L131.268 132.306L133.264 128.471C132.407 128.229 131.728 127.799 131.228 127.182C130.736 126.563 130.46 125.828 130.401 124.976C130.346 124.188 130.5 123.476 130.863 122.839C131.227 122.201 131.774 121.686 132.505 121.292C133.236 120.898 134.125 120.665 135.173 120.592L142.722 120.064L142.831 121.61L140.87 122.09L141.528 131.503L143.537 131.705L143.644 133.239L137.275 133.685L137.168 132.15L139.129 131.671L138.902 128.432L135.651 128.659L132.891 133.991L129.664 134.217ZM135.361 126.782L138.77 126.544L138.469 122.233L135.303 122.455C134.434 122.515 133.792 122.781 133.376 123.25C132.96 123.712 132.772 124.239 132.814 124.831C132.855 125.416 133.088 125.901 133.515 126.287C133.95 126.673 134.565 126.838 135.361 126.782ZM146.624 136.837L145.21 136.03C145.55 135.419 145.797 134.802 145.949 134.18C146.101 133.557 146.153 132.905 146.106 132.223L145.976 130.372L148.375 130.204L148.502 132.019C148.558 132.814 148.417 133.66 148.08 134.557C147.743 135.453 147.258 136.213 146.624 136.837ZM161.039 132.28C159.667 132.376 158.6 132.116 157.839 131.5C157.078 130.876 156.654 129.956 156.569 128.738C156.511 127.902 156.687 127.159 157.099 126.511C157.518 125.853 158.15 125.324 158.995 124.922C159.839 124.512 160.866 124.265 162.075 124.18L164.426 124.016L164.335 122.725C164.28 121.929 163.993 121.33 163.475 120.925C162.966 120.52 162.272 120.349 161.396 120.41C160.844 120.448 160.369 120.551 159.973 120.717C159.576 120.876 159.22 121.084 158.903 121.343L158.776 123.199L156.925 123.329L156.714 120.309C157.273 119.788 157.938 119.379 158.708 119.08C159.478 118.774 160.342 118.587 161.3 118.52C162.899 118.408 164.18 118.702 165.143 119.401C166.106 120.101 166.637 121.161 166.736 122.582L167.18 128.926C167.192 129.097 167.203 129.263 167.214 129.425C167.234 129.587 167.257 129.749 167.285 129.91L168.573 129.954L168.68 131.489L165.234 131.73C165.136 131.378 165.057 131.061 164.996 130.78C164.936 130.498 164.888 130.216 164.852 129.933C164.43 130.558 163.884 131.094 163.214 131.541C162.551 131.978 161.826 132.225 161.039 132.28ZM161.251 130.246C162.047 130.19 162.76 129.949 163.391 129.521C164.022 129.094 164.461 128.602 164.707 128.047L164.541 125.66L162.105 125.83C161.001 125.907 160.191 126.229 159.676 126.795C159.161 127.362 158.926 127.969 158.972 128.619C159.012 129.195 159.222 129.625 159.6 129.909C159.978 130.184 160.529 130.297 161.251 130.246ZM182.726 130.763C181.533 130.847 180.475 130.644 179.551 130.153C178.627 129.655 177.887 128.928 177.331 127.971C176.774 127.015 176.451 125.887 176.36 124.589L176.324 124.077C176.237 122.827 176.394 121.69 176.795 120.667C177.197 119.643 177.82 118.813 178.665 118.174C179.509 117.536 180.544 117.174 181.77 117.088C182.834 117.014 183.775 117.124 184.595 117.417C185.424 117.71 186.131 118.142 186.717 118.713L187 121.874L185.124 122.006L184.549 119.733C184.253 119.468 183.893 119.265 183.467 119.123C183.041 118.982 182.548 118.931 181.987 118.97C181.273 119.02 180.659 119.275 180.144 119.735C179.638 120.195 179.259 120.788 179.008 121.515C178.757 122.243 178.662 123.041 178.723 123.909L178.759 124.421C178.826 125.379 179.022 126.201 179.347 126.888C179.681 127.575 180.121 128.094 180.668 128.448C181.222 128.792 181.861 128.94 182.583 128.889C183.395 128.832 184.053 128.562 184.558 128.078C185.062 127.594 185.348 126.958 185.416 126.17L187.571 126.019L187.6 126.091C187.613 126.849 187.439 127.571 187.079 128.257C186.719 128.942 186.176 129.515 185.449 129.974C184.73 130.424 183.822 130.687 182.726 130.763ZM196.048 129.832C194.831 129.917 193.76 129.706 192.835 129.2C191.918 128.685 191.185 127.941 190.635 126.968C190.085 125.986 189.765 124.846 189.674 123.547L189.655 123.28C189.565 121.981 189.723 120.811 190.132 119.771C190.54 118.723 191.162 117.88 191.999 117.242C192.843 116.604 193.866 116.243 195.068 116.159C196.286 116.073 197.353 116.288 198.27 116.803C199.195 117.318 199.933 118.062 200.482 119.035C201.031 120.008 201.352 121.148 201.443 122.455L201.462 122.723C201.553 124.03 201.395 125.208 200.987 126.256C200.578 127.296 199.955 128.131 199.118 128.761C198.281 129.39 197.258 129.747 196.048 129.832ZM195.917 127.957C196.68 127.903 197.303 127.652 197.786 127.202C198.276 126.743 198.625 126.144 198.835 125.403C199.051 124.654 199.128 123.816 199.063 122.891L199.044 122.623C198.979 121.698 198.788 120.883 198.469 120.179C198.159 119.467 197.729 118.922 197.18 118.544C196.631 118.158 195.971 117.992 195.2 118.046C194.437 118.099 193.81 118.355 193.32 118.814C192.829 119.264 192.48 119.864 192.271 120.613C192.062 121.353 191.99 122.186 192.054 123.112L192.073 123.38C192.138 124.305 192.326 125.124 192.636 125.837C192.947 126.541 193.376 127.086 193.926 127.472C194.482 127.849 195.146 128.011 195.917 127.957ZM206.875 134.165C206.688 134.178 206.443 134.171 206.139 134.143C205.836 134.124 205.602 134.099 205.437 134.07L205.548 132.166C205.687 132.172 205.879 132.171 206.123 132.162C206.368 132.161 206.535 132.158 206.624 132.152C207.136 132.116 207.536 131.892 207.825 131.48C208.123 131.068 208.386 130.515 208.615 129.822L209.09 128.394L203.645 117.553L202.219 117.457L202.111 115.911L207.64 115.524L207.748 117.071L206.17 117.426L209.2 123.834L209.941 125.508L210.014 125.502L212.477 116.985L210.78 116.859L210.672 115.312L216.091 114.933L216.199 116.48L214.849 116.77L210.602 130.589C210.403 131.239 210.146 131.824 209.831 132.343C209.526 132.871 209.131 133.294 208.648 133.613C208.172 133.932 207.581 134.116 206.875 134.165ZM226.121 127.472L226.013 125.938L227.974 125.458L227.777 122.633C227.315 122.788 226.842 122.91 226.359 123.001C225.876 123.092 225.362 123.157 224.818 123.195C223.755 123.269 222.828 123.146 222.039 122.826C221.258 122.505 220.639 121.994 220.182 121.292C219.724 120.581 219.457 119.678 219.381 118.582L219.241 116.585L217.232 116.383L217.125 114.849L221.509 114.542L223.494 114.403L223.601 115.938L221.64 116.417L221.78 118.414C221.829 119.121 221.967 119.694 222.194 120.135C222.428 120.568 222.751 120.88 223.164 121.071C223.586 121.262 224.093 121.336 224.685 121.295C225.221 121.258 225.731 121.193 226.214 121.102C226.696 121.003 227.173 120.876 227.643 120.721L227.316 116.045L225.307 115.843L225.199 114.296L231.568 113.851L231.676 115.397L229.715 115.877L230.373 125.29L232.382 125.492L232.489 127.027L226.121 127.472ZM238.949 126.832C237.577 126.928 236.511 126.668 235.75 126.052C234.988 125.428 234.565 124.508 234.48 123.29C234.421 122.454 234.598 121.711 235.009 121.063C235.428 120.405 236.06 119.875 236.905 119.474C237.749 119.064 238.776 118.817 239.986 118.732L242.336 118.568L242.246 117.277C242.19 116.481 241.903 115.881 241.386 115.477C240.876 115.072 240.183 114.9 239.306 114.962C238.754 115 238.28 115.103 237.884 115.269C237.487 115.428 237.13 115.636 236.814 115.895L236.687 117.751L234.836 117.881L234.624 114.861C235.184 114.34 235.848 113.931 236.619 113.632C237.389 113.326 238.253 113.139 239.211 113.072C240.81 112.96 242.091 113.254 243.053 113.953C244.016 114.653 244.547 115.713 244.646 117.134L245.09 123.478C245.102 123.648 245.113 123.815 245.125 123.977C245.144 124.139 245.168 124.301 245.195 124.462L246.483 124.506L246.591 126.041L243.145 126.282C243.046 125.93 242.967 125.613 242.907 125.332C242.846 125.05 242.798 124.768 242.762 124.485C242.341 125.11 241.795 125.646 241.124 126.093C240.462 126.53 239.737 126.777 238.949 126.832ZM239.162 124.798C239.957 124.742 240.671 124.501 241.301 124.073C241.932 123.646 242.371 123.154 242.618 122.599L242.451 120.212L240.015 120.382C238.911 120.459 238.102 120.781 237.587 121.347C237.071 121.914 236.837 122.521 236.882 123.171C236.922 123.747 237.132 124.177 237.511 124.461C237.889 124.736 238.439 124.849 239.162 124.798ZM254.426 125.75C253.233 125.833 252.175 125.63 251.251 125.14C250.327 124.641 249.587 123.914 249.031 122.958C248.474 122.001 248.151 120.874 248.06 119.575L248.024 119.063C247.937 117.813 248.094 116.676 248.495 115.653C248.897 114.63 249.52 113.799 250.365 113.161C251.209 112.522 252.244 112.16 253.47 112.075C254.534 112 255.475 112.11 256.295 112.403C257.123 112.696 257.831 113.128 258.417 113.699L258.7 116.861L256.824 116.992L256.249 114.719C255.953 114.454 255.592 114.251 255.167 114.11C254.741 113.968 254.248 113.917 253.687 113.956C252.973 114.006 252.359 114.261 251.844 114.721C251.338 115.181 250.959 115.774 250.708 116.502C250.457 117.229 250.362 118.027 250.423 118.896L250.459 119.407C250.526 120.365 250.722 121.187 251.047 121.874C251.381 122.561 251.821 123.081 252.368 123.434C252.922 123.779 253.561 123.926 254.283 123.875C255.095 123.819 255.753 123.548 256.258 123.064C256.762 122.58 257.048 121.944 257.115 121.156L259.271 121.006L259.3 121.077C259.313 121.835 259.139 122.557 258.779 123.243C258.419 123.929 257.876 124.501 257.149 124.96C256.43 125.41 255.522 125.673 254.426 125.75ZM264.528 124.786L264.421 123.252L266.382 122.772L265.722 113.335L262.945 113.529L262.907 115.6L260.861 115.743L260.587 111.822L273.056 110.95L273.33 114.871L271.272 115.015L270.946 112.97L268.121 113.167L268.781 122.605L270.789 122.807L270.897 124.341L264.528 124.786ZM276.182 123.972L276.074 122.437L278.035 121.957L277.377 112.544L275.368 112.342L275.26 110.796L281.629 110.35L281.737 111.897L279.776 112.377L280.043 116.188L285.9 115.779L285.633 111.967L283.625 111.765L283.516 110.218L285.501 110.08L287.912 109.911L289.897 109.772L290.005 111.319L288.044 111.798L288.703 121.211L290.711 121.414L290.819 122.948L284.438 123.394L284.33 121.86L286.291 121.38L286.031 117.654L280.174 118.063L280.434 121.79L282.443 121.992L282.55 123.526L276.182 123.972ZM293.181 122.783L293.074 121.248L295.035 120.769L294.377 111.356L292.368 111.153L292.26 109.607L296.631 109.301L298.616 109.162L298.724 110.709L296.763 111.189L297.284 118.629L297.358 118.648L302.513 108.89L304.912 108.722L306.897 108.583L307.005 110.13L305.044 110.61L305.702 120.023L307.711 120.225L307.818 121.759L301.449 122.205L301.342 120.67L303.303 120.191L302.782 112.738L302.707 112.719L297.553 122.477L293.181 122.783ZM310.181 121.594L310.073 120.06L312.034 119.58L311.376 110.167L309.367 109.965L309.259 108.418L315.628 107.973L315.736 109.519L313.775 109.999L314.032 113.677L315.299 113.588L317.793 109.706C318.24 108.981 318.686 108.424 319.132 108.034C319.586 107.643 320.109 107.427 320.702 107.386C321.075 107.359 321.387 107.387 321.638 107.467C321.887 107.539 322.173 107.662 322.495 107.835L322.269 109.491C321.915 109.458 321.71 109.44 321.653 109.436C321.604 109.431 321.498 109.435 321.335 109.446C321.035 109.467 320.746 109.597 320.469 109.837C320.201 110.076 319.967 110.353 319.769 110.669L317.455 114.147L321.961 118.923L323.675 119.109L323.783 120.643L320.58 120.867L315.732 115.589L314.174 115.698L314.433 119.412L316.442 119.614L316.549 121.149L310.181 121.594ZM41.4801 172.462L41.3728 170.927L43.3339 170.447L42.6739 161.01L39.8975 161.204L39.8587 163.275L37.813 163.418L37.5388 159.497L50.0083 158.625L50.2825 162.546L48.2246 162.69L47.898 160.645L45.0729 160.842L45.7328 170.28L47.7415 170.482L47.8488 172.016L41.4801 172.462ZM53.1338 171.647L53.0265 170.112L54.9875 169.633L54.3293 160.22L52.3206 160.017L52.2124 158.471L54.1973 158.332L59.3848 157.969C61.1221 157.848 62.491 158.058 63.4916 158.6C64.4915 159.134 65.0338 160.005 65.1184 161.215C65.1615 161.832 65.0134 162.397 64.674 162.91C64.3341 163.415 63.8319 163.818 63.1676 164.117C64.0017 164.262 64.6698 164.599 65.1717 165.127C65.673 165.647 65.9487 166.264 65.9986 166.978C66.0849 168.212 65.6996 169.177 64.8428 169.873C63.9941 170.569 62.7619 170.973 61.1464 171.086L53.1338 171.647ZM57.3882 169.489L61.017 169.235C61.91 169.173 62.5722 168.959 63.0035 168.595C63.4343 168.222 63.6275 167.719 63.5833 167.086C63.5395 166.461 63.2785 165.994 62.8 165.684C62.3215 165.375 61.6358 165.252 60.7428 165.314L57.114 165.568L57.3882 169.489ZM56.9854 163.729L59.7862 163.533C60.8009 163.462 61.5535 163.259 62.044 162.923C62.5426 162.586 62.7705 162.113 62.728 161.504C62.64 160.246 61.569 159.689 59.5151 159.832L56.7265 160.027L56.9854 163.729ZM74.3158 170.422C73.0981 170.508 72.0269 170.297 71.1023 169.791C70.1852 169.275 69.452 168.531 68.9026 167.558C68.3527 166.577 68.0323 165.437 67.9415 164.138L67.9227 163.87C67.8319 162.571 67.9908 161.402 68.3994 160.361C68.8074 159.313 69.4296 158.47 70.2661 157.832C71.1106 157.194 72.1337 156.833 73.3352 156.749C74.5529 156.664 75.6203 156.879 76.5374 157.394C77.4626 157.908 78.1998 158.652 78.7492 159.625C79.2986 160.599 79.619 161.739 79.7103 163.046L79.7291 163.314C79.8205 164.621 79.6622 165.798 79.2542 166.847C78.8456 167.887 78.2228 168.722 77.3857 169.351C76.5487 169.981 75.5254 170.338 74.3158 170.422ZM74.1846 168.547C74.9478 168.494 75.5706 168.242 76.0531 167.792C76.5431 167.334 76.8928 166.734 77.102 165.994C77.3188 165.244 77.3949 164.407 77.3302 163.481L77.3114 163.213C77.2467 162.288 77.0551 161.473 76.7367 160.77C76.4258 160.057 75.9961 159.512 75.4476 159.134C74.8985 158.749 74.2384 158.583 73.4672 158.637C72.704 158.69 72.0775 158.946 71.5874 159.404C71.0968 159.855 70.7472 160.454 70.5385 161.203C70.3292 161.944 70.2569 162.777 70.3217 163.702L70.3404 163.97C70.4051 164.896 70.5929 165.715 70.9038 166.427C71.2141 167.131 71.6438 167.677 72.1929 168.062C72.7495 168.439 73.4134 168.601 74.1846 168.547ZM82.336 174.695L82.2279 173.149L84.0671 172.677L83.0555 158.211L81.0468 158.009L80.9387 156.462L84.9815 156.179L85.3131 157.771C85.7095 157.14 86.2092 156.644 86.8121 156.284C87.4232 155.923 88.1428 155.714 88.9708 155.656C90.0587 155.58 91.0089 155.811 91.8216 156.35C92.6337 156.88 93.2799 157.663 93.7601 158.698C94.2399 159.725 94.5294 160.949 94.6287 162.37L94.6466 162.625C94.7352 163.892 94.6056 165.014 94.258 165.993C93.9185 166.971 93.386 167.755 92.6603 168.344C91.9341 168.925 91.0352 169.253 89.9636 169.328C89.1518 169.385 88.428 169.301 87.7923 169.076C87.1641 168.843 86.6162 168.473 86.1485 167.968L86.4661 172.51L88.5844 172.704L88.6926 174.251L82.336 174.695ZM89.0897 167.505C90.2262 167.425 91.0578 166.951 91.5844 166.082C92.111 165.213 92.328 164.117 92.2355 162.794L92.2176 162.538C92.1472 161.532 91.9555 160.656 91.6423 159.911C91.3286 159.158 90.8966 158.58 90.3464 158.178C89.8043 157.776 89.1477 157.601 88.3764 157.655C87.6945 157.703 87.1208 157.898 86.6553 158.241C86.1897 158.583 85.8255 159.033 85.5626 159.59L86.0114 166.007C86.3498 166.53 86.769 166.925 87.2689 167.192C87.7765 167.45 88.3834 167.554 89.0897 167.505ZM105.411 167.991L105.304 166.457L107.265 165.977L107.067 163.152C106.605 163.307 106.132 163.429 105.649 163.52C105.166 163.611 104.652 163.676 104.108 163.714C103.045 163.788 102.119 163.665 101.329 163.345C100.548 163.024 99.9291 162.513 99.4721 161.811C99.0146 161.1 98.7475 160.197 98.6708 159.101L98.5312 157.104L96.5224 156.902L96.4151 155.368L100.799 155.061L102.784 154.922L102.891 156.457L100.93 156.936L101.07 158.933C101.119 159.64 101.257 160.213 101.484 160.654C101.718 161.087 102.042 161.399 102.455 161.59C102.876 161.781 103.383 161.855 103.976 161.814C104.511 161.776 105.021 161.712 105.504 161.621C105.986 161.522 106.463 161.395 106.933 161.24L106.606 156.564L104.598 156.362L104.49 154.815L110.858 154.37L110.966 155.916L109.005 156.396L109.664 165.809L111.672 166.011L111.78 167.546L105.411 167.991ZM119.981 167.229C118.763 167.314 117.684 167.112 116.744 166.623C115.804 166.126 115.052 165.4 114.487 164.444C113.931 163.488 113.607 162.36 113.517 161.061L113.479 160.525C113.392 159.275 113.569 158.141 114.012 157.123C114.462 156.096 115.094 155.269 115.907 154.641C116.727 154.004 117.644 153.651 118.659 153.58C119.844 153.497 120.852 153.671 121.681 154.103C122.519 154.533 123.172 155.177 123.64 156.034C124.107 156.882 124.382 157.903 124.466 159.096L124.57 160.594L116.022 161.192L115.99 161.255C116.065 162.098 116.264 162.839 116.586 163.477C116.915 164.107 117.357 164.59 117.911 164.927C118.464 165.263 119.111 165.406 119.85 165.354C120.661 165.297 121.364 165.134 121.957 164.864C122.557 164.585 123.067 164.228 123.485 163.79L124.531 165.284C124.092 165.771 123.494 166.2 122.737 166.572C121.987 166.934 121.068 167.153 119.981 167.229ZM115.964 159.311L122.04 158.887L122.018 158.57C121.974 157.937 121.821 157.38 121.559 156.901C121.305 156.413 120.944 156.043 120.478 155.79C120.019 155.528 119.457 155.421 118.791 155.467C118.255 155.505 117.779 155.697 117.363 156.044C116.946 156.383 116.614 156.831 116.368 157.386C116.121 157.942 115.977 158.564 115.935 159.252L115.964 159.311ZM133.327 166.296C132.134 166.379 131.075 166.176 130.152 165.686C129.228 165.188 128.487 164.46 127.931 163.504C127.375 162.548 127.051 161.42 126.96 160.121L126.925 159.61C126.837 158.359 126.994 157.223 127.396 156.199C127.797 155.176 128.42 154.345 129.265 153.707C130.11 153.069 131.145 152.707 132.371 152.621C133.434 152.547 134.376 152.656 135.196 152.95C136.024 153.242 136.731 153.674 137.318 154.245L137.6 157.407L135.725 157.538L135.15 155.265C134.854 155.001 134.493 154.797 134.067 154.656C133.641 154.514 133.148 154.463 132.588 154.502C131.874 154.552 131.259 154.807 130.745 155.268C130.238 155.727 129.86 156.321 129.609 157.048C129.358 157.775 129.263 158.573 129.323 159.442L129.359 159.953C129.426 160.911 129.622 161.734 129.948 162.421C130.281 163.107 130.722 163.627 131.268 163.98C131.823 164.325 132.461 164.472 133.184 164.422C133.995 164.365 134.654 164.094 135.158 163.61C135.663 163.126 135.949 162.491 136.016 161.703L138.171 161.552L138.201 161.623C138.213 162.381 138.039 163.103 137.679 163.789C137.319 164.475 136.776 165.047 136.049 165.506C135.33 165.956 134.423 166.219 133.327 166.296ZM143.428 165.333L143.321 163.798L145.282 163.319L144.622 153.881L141.846 154.075L141.807 156.146L139.761 156.289L139.487 152.368L151.957 151.496L152.231 155.417L150.173 155.561L149.846 153.516L147.021 153.713L147.681 163.151L149.69 163.353L149.797 164.887L143.428 165.333ZM155.082 164.518L154.975 162.983L156.936 162.504L156.278 153.091L154.269 152.888L154.161 151.342L156.146 151.203L161.333 150.84C163.07 150.719 164.439 150.929 165.44 151.471C166.44 152.005 166.982 152.876 167.067 154.086C167.11 154.703 166.962 155.268 166.622 155.781C166.282 156.286 165.78 156.689 165.116 156.988C165.95 157.134 166.618 157.47 167.12 157.998C167.621 158.518 167.897 159.135 167.947 159.849C168.033 161.083 167.648 162.048 166.791 162.744C165.942 163.44 164.71 163.844 163.095 163.957L155.082 164.518ZM159.336 162.36L162.965 162.106C163.858 162.044 164.52 161.831 164.952 161.466C165.383 161.093 165.576 160.59 165.532 159.957C165.488 159.332 165.227 158.865 164.748 158.556C164.27 158.246 163.584 158.123 162.691 158.185L159.062 158.439L159.336 162.36ZM158.934 156.6L161.734 156.405C162.749 156.334 163.502 156.13 163.992 155.794C164.491 155.457 164.719 154.984 164.676 154.376C164.588 153.117 163.517 152.56 161.463 152.703L158.675 152.898L158.934 156.6ZM174.571 163.412C173.199 163.508 172.133 163.248 171.372 162.632C170.611 162.008 170.187 161.088 170.102 159.87C170.044 159.034 170.22 158.291 170.632 157.642C171.051 156.985 171.683 156.455 172.527 156.054C173.372 155.644 174.398 155.397 175.608 155.312L177.958 155.148L177.868 153.857C177.812 153.061 177.526 152.461 177.008 152.057C176.498 151.652 175.805 151.48 174.928 151.542C174.376 151.58 173.902 151.683 173.506 151.849C173.109 152.007 172.753 152.216 172.436 152.475L172.309 154.331L170.458 154.461L170.247 151.441C170.806 150.92 171.471 150.511 172.241 150.212C173.011 149.905 173.875 149.719 174.833 149.652C176.432 149.54 177.713 149.834 178.676 150.533C179.638 151.233 180.169 152.293 180.269 153.714L180.712 160.058C180.724 160.228 180.736 160.395 180.747 160.557C180.767 160.719 180.79 160.88 180.818 161.042L182.106 161.086L182.213 162.621L178.767 162.862C178.669 162.509 178.59 162.193 178.529 161.911C178.469 161.63 178.42 161.348 178.384 161.065C177.963 161.69 177.417 162.226 176.747 162.672C176.084 163.11 175.359 163.357 174.571 163.412ZM174.784 161.378C175.58 161.322 176.293 161.081 176.924 160.653C177.555 160.226 177.993 159.734 178.24 159.178L178.073 156.792L175.638 156.962C174.534 157.039 173.724 157.361 173.209 157.927C172.694 158.493 172.459 159.101 172.504 159.751C172.545 160.327 172.754 160.757 173.133 161.041C173.511 161.316 174.062 161.428 174.784 161.378ZM185.072 166.226L183.657 165.42C183.998 164.809 184.244 164.192 184.396 163.569C184.549 162.947 184.601 162.295 184.553 161.613L184.424 159.762L186.823 159.594L186.95 161.408C187.005 162.204 186.865 163.05 186.528 163.946C186.19 164.843 185.705 165.603 185.072 166.226ZM201.179 161.551C199.985 161.635 198.927 161.431 198.004 160.941C197.08 160.443 196.339 159.716 195.783 158.759C195.227 157.803 194.903 156.675 194.812 155.376L194.776 154.865C194.689 153.615 194.846 152.478 195.248 151.455C195.649 150.431 196.272 149.6 197.117 148.962C197.962 148.324 198.997 147.962 200.223 147.876C201.286 147.802 202.228 147.911 203.048 148.205C203.876 148.498 204.583 148.93 205.17 149.5L205.452 152.662L203.577 152.793L203.002 150.521C202.706 150.256 202.345 150.053 201.919 149.911C201.493 149.77 201 149.719 200.44 149.758C199.725 149.808 199.111 150.063 198.597 150.523C198.09 150.983 197.712 151.576 197.461 152.303C197.21 153.031 197.115 153.829 197.175 154.697L197.211 155.209C197.278 156.167 197.474 156.989 197.8 157.676C198.133 158.362 198.573 158.882 199.12 159.236C199.675 159.58 200.313 159.727 201.036 159.677C201.847 159.62 202.506 159.35 203.01 158.866C203.515 158.382 203.801 157.746 203.868 156.958L206.023 156.807L206.053 156.879C206.065 157.636 205.891 158.358 205.531 159.044C205.171 159.73 204.628 160.303 203.901 160.761C203.182 161.211 202.275 161.475 201.179 161.551ZM214.501 160.62C213.283 160.705 212.212 160.494 211.287 159.988C210.37 159.473 209.637 158.729 209.088 157.756C208.538 156.774 208.217 155.634 208.126 154.335L208.108 154.067C208.017 152.768 208.176 151.599 208.584 150.559C208.992 149.51 209.615 148.667 210.451 148.03C211.296 147.392 212.319 147.03 213.52 146.946C214.738 146.861 215.805 147.076 216.722 147.591C217.648 148.106 218.385 148.85 218.934 149.823C219.484 150.796 219.804 151.936 219.895 153.243L219.914 153.511C220.006 154.818 219.847 155.996 219.439 157.044C219.031 158.084 218.408 158.919 217.571 159.549C216.734 160.178 215.71 160.535 214.501 160.62ZM214.37 158.744C215.133 158.691 215.756 158.44 216.238 157.99C216.728 157.531 217.078 156.932 217.287 156.191C217.504 155.442 217.58 154.604 217.515 153.679L217.496 153.411C217.432 152.485 217.24 151.671 216.922 150.967C216.611 150.254 216.181 149.709 215.633 149.332C215.084 148.946 214.423 148.78 213.652 148.834C212.889 148.887 212.262 149.143 211.772 149.602C211.282 150.052 210.932 150.652 210.723 151.4C210.514 152.141 210.442 152.974 210.507 153.9L210.525 154.167C210.59 155.093 210.778 155.912 211.089 156.624C211.399 157.329 211.829 157.874 212.378 158.26C212.935 158.637 213.598 158.798 214.37 158.744ZM227.056 159.742C225.684 159.838 224.617 159.578 223.856 158.962C223.095 158.338 222.671 157.417 222.586 156.2C222.528 155.364 222.704 154.621 223.116 153.972C223.535 153.315 224.167 152.785 225.011 152.384C225.856 151.974 226.883 151.727 228.092 151.642L230.442 151.478L230.352 150.187C230.297 149.391 230.01 148.791 229.492 148.387C228.982 147.982 228.289 147.81 227.413 147.872C226.86 147.91 226.386 148.013 225.99 148.179C225.593 148.337 225.237 148.546 224.92 148.805L224.793 150.661L222.942 150.791L222.731 147.771C223.29 147.25 223.955 146.841 224.725 146.542C225.495 146.235 226.359 146.049 227.317 145.982C228.916 145.87 230.197 146.164 231.16 146.863C232.123 147.563 232.653 148.623 232.753 150.043L233.196 156.388C233.208 156.558 233.22 156.725 233.231 156.887C233.251 157.049 233.274 157.21 233.302 157.372L234.59 157.416L234.697 158.951L231.251 159.191C231.153 158.839 231.074 158.523 231.013 158.241C230.953 157.96 230.905 157.678 230.868 157.395C230.447 158.02 229.901 158.556 229.231 159.002C228.568 159.44 227.843 159.687 227.056 159.742ZM227.268 157.708C228.064 157.652 228.777 157.411 229.408 156.983C230.039 156.556 230.478 156.064 230.724 155.508L230.557 153.122L228.122 153.292C227.018 153.369 226.208 153.691 225.693 154.257C225.178 154.823 224.943 155.431 224.989 156.081C225.029 156.657 225.238 157.087 225.617 157.371C225.995 157.646 226.546 157.758 227.268 157.708ZM236.84 158.801L236.733 157.266L238.694 156.787L238.036 147.373L236.027 147.171L235.919 145.625L237.904 145.486L243.092 145.123C244.829 145.002 246.198 145.212 247.198 145.754C248.198 146.288 248.74 147.159 248.825 148.369C248.868 148.986 248.72 149.551 248.381 150.064C248.041 150.569 247.539 150.972 246.874 151.271C247.708 151.416 248.376 151.753 248.878 152.281C249.38 152.801 249.655 153.418 249.705 154.132C249.792 155.366 249.406 156.331 248.549 157.027C247.701 157.723 246.469 158.127 244.853 158.24L236.84 158.801ZM241.095 156.643L244.724 156.389C245.617 156.327 246.279 156.113 246.71 155.749C247.141 155.376 247.334 154.873 247.29 154.24C247.246 153.615 246.985 153.148 246.507 152.838C246.028 152.529 245.342 152.406 244.449 152.468L240.821 152.722L241.095 156.643ZM240.692 150.883L243.493 150.687C244.508 150.616 245.26 150.413 245.751 150.077C246.249 149.74 246.477 149.267 246.435 148.658C246.347 147.4 245.276 146.843 243.222 146.986L240.433 147.181L240.692 150.883ZM254.972 157.533L254.865 155.998L256.826 155.519L256.166 146.081L253.39 146.275L253.351 148.346L251.305 148.489L251.031 144.568L263.501 143.696L263.775 147.617L261.717 147.761L261.39 145.716L258.565 145.913L259.225 155.351L261.234 155.553L261.341 157.087L254.972 157.533ZM271.807 156.613C270.589 156.698 269.518 156.487 268.594 155.981C267.677 155.466 266.943 154.721 266.394 153.748C265.844 152.767 265.524 151.627 265.433 150.328L265.414 150.06C265.323 148.761 265.482 147.592 265.891 146.551C266.299 145.503 266.921 144.66 267.757 144.023C268.602 143.384 269.625 143.023 270.827 142.939C272.044 142.854 273.112 143.069 274.029 143.584C274.954 144.099 275.691 144.842 276.241 145.816C276.79 146.789 277.11 147.929 277.202 149.236L277.22 149.504C277.312 150.811 277.154 151.988 276.746 153.037C276.337 154.077 275.714 154.912 274.877 155.541C274.04 156.171 273.017 156.528 271.807 156.613ZM271.676 154.737C272.439 154.684 273.062 154.432 273.544 153.982C274.034 153.524 274.384 152.924 274.593 152.184C274.81 151.434 274.886 150.597 274.822 149.671L274.803 149.404C274.738 148.478 274.547 147.663 274.228 146.96C273.917 146.247 273.488 145.702 272.939 145.324C272.39 144.939 271.73 144.773 270.959 144.827C270.195 144.88 269.569 145.136 269.079 145.594C268.588 146.045 268.239 146.644 268.03 147.393C267.821 148.134 267.748 148.967 267.813 149.892L267.832 150.16C267.896 151.086 268.084 151.905 268.395 152.617C268.705 153.322 269.135 153.867 269.684 154.252C270.241 154.63 270.905 154.791 271.676 154.737ZM279.827 160.885L279.719 159.339L281.559 158.867L280.547 144.401L278.538 144.199L278.43 142.652L282.473 142.369L282.804 143.962C283.201 143.33 283.701 142.834 284.303 142.474C284.915 142.113 285.634 141.904 286.462 141.846C287.55 141.77 288.5 142.001 289.313 142.54C290.125 143.07 290.771 143.853 291.252 144.888C291.731 145.915 292.021 147.139 292.12 148.56L292.138 148.815C292.227 150.082 292.097 151.204 291.749 152.183C291.41 153.161 290.877 153.945 290.152 154.534C289.426 155.115 288.527 155.443 287.455 155.518C286.643 155.575 285.919 155.491 285.284 155.266C284.656 155.033 284.108 154.663 283.64 154.158L283.957 158.7L286.076 158.894L286.184 160.441L279.827 160.885ZM286.581 153.695C287.718 153.615 288.549 153.141 289.076 152.272C289.602 151.403 289.819 150.307 289.727 148.984L289.709 148.728C289.639 147.722 289.447 146.846 289.134 146.101C288.82 145.348 288.388 144.77 287.838 144.368C287.296 143.966 286.639 143.791 285.868 143.845C285.186 143.893 284.612 144.088 284.147 144.431C283.681 144.773 283.317 145.223 283.054 145.78L283.503 152.197C283.841 152.72 284.26 153.115 284.76 153.382C285.268 153.64 285.875 153.744 286.581 153.695ZM295.803 154.678L295.631 152.218L298.03 152.05L298.202 154.51L295.803 154.678Z" fill="white"/>
<path d="M294.285 173.472L290.493 186.728L288.574 186.862L292.989 172.3L294.226 172.214L294.285 173.472ZM299.125 186.125L293.515 173.526L293.398 172.272L294.636 172.185L301.054 185.99L299.125 186.125ZM298.514 180.891L298.622 182.43L290.653 182.987L290.545 181.448L298.514 180.891ZM309.413 179.404L309.516 180.865L303.943 181.255L303.841 179.794L309.413 179.404ZM303.902 175.198L304.639 185.739L302.836 185.865L302.099 175.324L303.902 175.198ZM310.555 174.733L311.292 185.274L309.48 185.4L308.743 174.86L310.555 174.733ZM315.358 174.397L317.16 174.271L317.28 178.228C317.311 179.23 317.258 180.102 317.12 180.843C316.983 181.583 316.786 182.22 316.53 182.754C316.273 183.281 315.975 183.729 315.635 184.099C315.302 184.468 314.952 184.783 314.585 185.043L313.689 185.106L313.635 183.632L314.004 183.596C314.201 183.328 314.39 183.054 314.573 182.773C314.755 182.486 314.918 182.152 315.061 181.77C315.203 181.381 315.311 180.914 315.384 180.367C315.463 179.813 315.491 179.142 315.468 178.354L315.358 174.397ZM315.806 174.366L322.148 173.922L322.885 184.463L321.083 184.589L320.462 175.714L315.923 176.032L315.806 174.366ZM313.176 183.654L324.136 182.888L324.456 187.476L322.654 187.602L322.437 184.494L315.082 185.009L315.299 188.116L313.487 188.243L313.176 183.654ZM327.443 175.588L328.322 188.155L326.51 188.282L325.489 173.689L327.146 173.573L327.443 175.588ZM334.766 178.248L334.78 178.453C334.834 179.219 334.792 179.937 334.656 180.605C334.52 181.267 334.293 181.851 333.976 182.356C333.665 182.861 333.266 183.264 332.778 183.566C332.29 183.867 331.718 184.041 331.062 184.087C330.393 184.134 329.795 184.065 329.266 183.88C328.738 183.695 328.28 183.404 327.893 183.007C327.507 182.609 327.185 182.123 326.93 181.547C326.681 180.97 326.491 180.315 326.361 179.58L326.285 178.489C326.309 177.704 326.406 176.996 326.577 176.364C326.748 175.732 326.994 175.186 327.314 174.726C327.641 174.259 328.049 173.895 328.54 173.632C329.03 173.363 329.606 173.205 330.269 173.159C330.931 173.112 331.528 173.201 332.059 173.425C332.59 173.643 333.047 173.976 333.431 174.426C333.815 174.875 334.118 175.425 334.34 176.075C334.567 176.719 334.709 177.443 334.766 178.248ZM332.968 178.579L332.954 178.375C332.917 177.849 332.827 177.359 332.684 176.906C332.541 176.446 332.341 176.049 332.082 175.714C331.83 175.373 331.518 175.114 331.147 174.938C330.775 174.755 330.343 174.681 329.849 174.715C329.394 174.747 329.004 174.853 328.677 175.032C328.357 175.211 328.089 175.442 327.874 175.725C327.658 176.001 327.487 176.313 327.361 176.661C327.242 177.002 327.159 177.354 327.112 177.716L327.289 180.239C327.45 180.685 327.662 181.101 327.924 181.487C328.186 181.867 328.52 182.167 328.927 182.386C329.333 182.599 329.832 182.685 330.423 182.644C330.91 182.61 331.322 182.48 331.659 182.254C332.001 182.021 332.274 181.718 332.476 181.345C332.685 180.971 332.828 180.55 332.907 180.081C332.984 179.606 333.005 179.105 332.968 178.579ZM341.827 183.334C341.093 183.386 340.419 183.309 339.804 183.104C339.195 182.892 338.661 182.574 338.2 182.149C337.746 181.724 337.384 181.207 337.113 180.6C336.842 179.992 336.681 179.318 336.629 178.578L336.6 178.169C336.541 177.311 336.614 176.539 336.82 175.853C337.026 175.16 337.331 174.564 337.733 174.066C338.136 173.568 338.604 173.18 339.14 172.901C339.675 172.622 340.238 172.462 340.829 172.42C341.582 172.368 342.241 172.452 342.805 172.674C343.375 172.895 343.852 173.227 344.235 173.67C344.618 174.107 344.916 174.634 345.129 175.252C345.341 175.864 345.473 176.54 345.525 177.28L345.582 178.089L337.71 178.639L337.607 177.168L343.677 176.744L343.667 176.608C343.608 176.142 343.479 175.694 343.279 175.264C343.086 174.834 342.801 174.488 342.424 174.228C342.047 173.967 341.549 173.858 340.932 173.901C340.523 173.93 340.153 174.044 339.821 174.243C339.488 174.436 339.211 174.71 338.987 175.065C338.764 175.42 338.602 175.846 338.499 176.342C338.397 176.839 338.368 177.406 338.412 178.042L338.441 178.451C338.476 178.951 338.577 179.417 338.744 179.849C338.918 180.275 339.149 180.643 339.439 180.956C339.734 181.268 340.081 181.505 340.477 181.667C340.88 181.828 341.328 181.891 341.822 181.856C342.458 181.812 342.988 181.644 343.412 181.354C343.835 181.063 344.197 180.689 344.498 180.23L345.65 181.021C345.446 181.381 345.18 181.729 344.851 182.066C344.522 182.402 344.108 182.685 343.609 182.916C343.116 183.146 342.522 183.286 341.827 183.334ZM349.768 179.715L354.091 171.689L355.903 171.562L356.641 182.103L354.829 182.229L354.291 174.543L349.967 182.569L348.175 182.695L347.438 172.154L349.23 172.029L349.768 179.715ZM352.84 167.939L354.302 167.837C354.337 168.343 354.252 168.803 354.046 169.215C353.839 169.621 353.526 169.95 353.106 170.201C352.687 170.452 352.178 170.599 351.581 170.641C350.678 170.704 349.947 170.513 349.387 170.07C348.833 169.619 348.53 169.01 348.476 168.244L349.937 168.142C349.964 168.525 350.098 168.855 350.34 169.132C350.581 169.409 350.968 169.528 351.5 169.491C352.02 169.455 352.38 169.283 352.58 168.975C352.781 168.667 352.867 168.322 352.84 167.939ZM368.615 167.012L369.607 181.196L367.756 181.325L366.764 167.141L368.615 167.012ZM373.174 166.693L373.282 168.232L362.322 168.999L362.215 167.459L373.174 166.693ZM380.976 178.59L380.597 173.164C380.568 172.748 380.458 172.394 380.268 172.1C380.084 171.8 379.82 171.577 379.477 171.431C379.134 171.285 378.719 171.229 378.232 171.263C377.777 171.295 377.383 171.401 377.05 171.581C376.723 171.761 376.471 171.984 376.294 172.251C376.123 172.517 376.048 172.796 376.069 173.089L374.267 173.215C374.24 172.838 374.312 172.458 374.481 172.074C374.649 171.69 374.905 171.336 375.248 171.012C375.597 170.681 376.022 170.41 376.523 170.198C377.029 169.98 377.601 169.849 378.238 169.804C379.004 169.751 379.688 169.834 380.291 170.052C380.9 170.271 381.389 170.632 381.757 171.134C382.131 171.63 382.345 172.271 382.4 173.057L382.744 177.967C382.768 178.318 382.824 178.689 382.91 179.081C383.002 179.473 383.12 179.807 383.264 180.084L383.275 180.24L381.395 180.372C381.289 180.17 381.198 179.899 381.122 179.559C381.046 179.212 380.997 178.889 380.976 178.59ZM380.967 173.98L381.075 175.245L379.253 175.372C378.74 175.408 378.285 175.482 377.889 175.595C377.491 175.701 377.162 175.845 376.901 176.026C376.639 176.208 376.446 176.427 376.32 176.683C376.194 176.934 376.142 177.221 376.165 177.546C376.188 177.877 376.284 178.174 376.453 178.436C376.621 178.699 376.86 178.901 377.17 179.042C377.487 179.177 377.865 179.228 378.307 179.197C378.859 179.159 379.338 179.008 379.744 178.745C380.15 178.481 380.464 178.172 380.687 177.817C380.917 177.462 381.03 177.124 381.028 176.805L381.858 177.618C381.831 177.894 381.729 178.204 381.551 178.55C381.373 178.895 381.126 179.232 380.809 179.561C380.499 179.883 380.12 180.161 379.673 180.394C379.232 180.621 378.726 180.754 378.154 180.794C377.44 180.844 376.803 180.748 376.245 180.507C375.693 180.265 375.251 179.92 374.92 179.474C374.594 179.02 374.411 178.501 374.37 177.916C374.331 177.351 374.406 176.847 374.597 176.403C374.788 175.952 375.081 175.569 375.476 175.254C375.871 174.933 376.356 174.677 376.93 174.487C377.504 174.297 378.152 174.177 378.873 174.126L380.967 173.98ZM386.946 171.427L387.825 183.994L386.013 184.121L384.993 169.528L386.649 169.412L386.946 171.427ZM394.269 174.087L394.283 174.292C394.337 175.058 394.295 175.776 394.159 176.444C394.023 177.107 393.796 177.69 393.479 178.195C393.169 178.7 392.769 179.103 392.281 179.405C391.793 179.707 391.221 179.88 390.565 179.926C389.897 179.973 389.298 179.904 388.769 179.719C388.241 179.534 387.783 179.243 387.396 178.846C387.01 178.449 386.689 177.962 386.433 177.386C386.184 176.81 385.994 176.154 385.865 175.419L385.788 174.328C385.812 173.543 385.909 172.835 386.08 172.203C386.251 171.571 386.497 171.025 386.817 170.565C387.144 170.099 387.552 169.734 388.043 169.471C388.533 169.202 389.109 169.044 389.772 168.998C390.434 168.952 391.031 169.04 391.562 169.264C392.093 169.482 392.551 169.815 392.934 170.265C393.318 170.714 393.621 171.264 393.843 171.914C394.07 172.558 394.212 173.282 394.269 174.087ZM392.471 174.419L392.457 174.214C392.42 173.688 392.33 173.198 392.188 172.745C392.045 172.285 391.844 171.888 391.585 171.553C391.333 171.212 391.021 170.953 390.65 170.777C390.278 170.594 389.846 170.52 389.352 170.554C388.898 170.586 388.507 170.692 388.18 170.871C387.86 171.05 387.592 171.281 387.377 171.564C387.161 171.84 386.99 172.152 386.865 172.5C386.745 172.841 386.662 173.193 386.615 173.555L386.792 176.079C386.953 176.524 387.165 176.94 387.427 177.326C387.689 177.706 388.023 178.006 388.43 178.225C388.836 178.438 389.335 178.524 389.926 178.483C390.413 178.449 390.825 178.319 391.162 178.093C391.504 177.86 391.777 177.557 391.979 177.184C392.188 176.811 392.332 176.389 392.41 175.921C392.487 175.445 392.508 174.945 392.471 174.419ZM398.164 168.607L398.901 179.148L397.098 179.274L396.361 168.733L398.164 168.607ZM405.08 168.123L400.505 174.513L397.982 174.689L397.599 173.13L399.664 172.986L402.888 168.277L405.08 168.123ZM403.879 178.799L399.668 174.297L400.736 172.911L406.168 178.639L403.879 178.799ZM406.684 173.425L406.669 173.201C406.616 172.441 406.677 171.728 406.852 171.063C407.027 170.392 407.306 169.802 407.688 169.292C408.069 168.776 408.546 168.364 409.119 168.056C409.691 167.742 410.343 167.559 411.077 167.508C411.818 167.456 412.493 167.546 413.103 167.778C413.719 168.002 414.252 168.343 414.702 168.801C415.158 169.252 415.519 169.798 415.785 170.439C416.052 171.073 416.211 171.77 416.264 172.53L416.28 172.754C416.333 173.513 416.272 174.226 416.097 174.891C415.921 175.556 415.64 176.146 415.251 176.663C414.869 177.173 414.392 177.585 413.821 177.899C413.255 178.206 412.602 178.385 411.861 178.437C411.121 178.489 410.446 178.402 409.836 178.177C409.226 177.946 408.693 177.605 408.237 177.154C407.788 176.695 407.43 176.149 407.163 175.515C406.897 174.881 406.738 174.184 406.684 173.425ZM408.471 173.075L408.487 173.299C408.523 173.825 408.62 174.317 408.776 174.776C408.932 175.229 409.145 175.625 409.417 175.965C409.695 176.304 410.03 176.565 410.421 176.746C410.812 176.921 411.258 176.991 411.758 176.956C412.251 176.922 412.676 176.791 413.032 176.564C413.394 176.33 413.686 176.025 413.908 175.651C414.13 175.276 414.286 174.854 414.378 174.384C414.475 173.908 414.505 173.406 414.468 172.88L414.452 172.656C414.416 172.137 414.317 171.651 414.155 171.199C413.999 170.74 413.782 170.341 413.503 170.001C413.231 169.655 412.899 169.391 412.508 169.209C412.123 169.027 411.681 168.954 411.181 168.989C410.687 169.023 410.259 169.158 409.897 169.392C409.542 169.626 409.25 169.933 409.022 170.315C408.8 170.689 408.644 171.114 408.553 171.591C408.462 172.06 408.435 172.555 408.471 173.075ZM423.525 172.766L420.067 173.008L419.947 171.567L422.772 171.37C423.33 171.331 423.791 171.243 424.153 171.107C424.522 170.97 424.793 170.785 424.966 170.551C425.139 170.317 425.214 170.037 425.191 169.713C425.174 169.459 425.103 169.242 424.979 169.062C424.862 168.874 424.692 168.726 424.469 168.618C424.245 168.503 423.972 168.427 423.65 168.391C423.334 168.348 422.965 168.341 422.542 168.371L420.234 168.532L420.868 177.611L419.066 177.737L418.329 167.197L422.44 166.909C423.109 166.863 423.714 166.879 424.255 166.959C424.802 167.038 425.272 167.184 425.666 167.398C426.065 167.605 426.378 167.884 426.605 168.233C426.832 168.583 426.963 169.005 426.997 169.498C427.019 169.816 426.976 170.123 426.866 170.418C426.756 170.713 426.582 170.979 426.344 171.218C426.106 171.456 425.807 171.66 425.447 171.829C425.086 171.991 424.667 172.108 424.189 172.181L423.525 172.766ZM423.849 177.403L419.738 177.69L420.532 176.166L423.747 175.942C424.247 175.907 424.659 175.816 424.981 175.669C425.303 175.516 425.537 175.317 425.684 175.072C425.836 174.82 425.9 174.528 425.877 174.197C425.854 173.866 425.75 173.589 425.564 173.367C425.385 173.138 425.126 172.974 424.786 172.873C424.445 172.767 424.025 172.731 423.525 172.766L420.788 172.957L420.706 171.514L424.126 171.275L424.817 171.775C425.398 171.78 425.898 171.889 426.318 172.101C426.737 172.313 427.064 172.597 427.297 172.952C427.531 173.302 427.662 173.69 427.692 174.119C427.727 174.613 427.663 175.054 427.501 175.444C427.346 175.834 427.101 176.167 426.768 176.445C426.435 176.716 426.023 176.934 425.532 177.099C425.04 177.258 424.479 177.359 423.849 177.403ZM434.446 175.37C434.875 175.34 435.265 175.224 435.616 175.024C435.968 174.823 436.25 174.562 436.462 174.24C436.674 173.912 436.783 173.549 436.787 173.15L438.502 173.03C438.513 173.656 438.343 174.252 437.991 174.818C437.645 175.378 437.172 175.845 436.571 176.22C435.971 176.588 435.297 176.798 434.55 176.851C433.758 176.906 433.056 176.815 432.446 176.577C431.842 176.338 431.328 175.989 430.904 175.529C430.487 175.069 430.159 174.531 429.92 173.914C429.687 173.291 429.546 172.625 429.496 171.918L429.468 171.508C429.418 170.801 429.465 170.125 429.61 169.482C429.76 168.832 430.01 168.25 430.359 167.736C430.715 167.222 431.175 166.804 431.74 166.484C432.311 166.164 432.993 165.976 433.786 165.92C434.61 165.862 435.343 165.981 435.984 166.276C436.624 166.564 437.139 166.984 437.531 167.538C437.928 168.084 438.168 168.72 438.251 169.445L436.537 169.565C436.474 169.132 436.323 168.748 436.084 168.412C435.852 168.076 435.546 167.817 435.168 167.635C434.796 167.445 434.37 167.367 433.889 167.401C433.337 167.44 432.88 167.582 432.519 167.83C432.164 168.07 431.889 168.383 431.694 168.768C431.505 169.147 431.378 169.564 431.312 170.019C431.251 170.467 431.238 170.921 431.27 171.382L431.298 171.792C431.331 172.253 431.408 172.704 431.53 173.146C431.652 173.588 431.833 173.983 432.073 174.332C432.319 174.68 432.635 174.951 433.021 175.146C433.413 175.334 433.888 175.409 434.446 175.37ZM441.982 165.543L442.719 176.083L440.917 176.209L440.18 165.669L441.982 165.543ZM448.899 165.059L444.324 171.449L441.801 171.625L441.418 170.066L443.483 169.921L446.707 165.212L448.899 165.059ZM447.697 175.735L443.486 171.233L444.554 169.847L449.987 175.575L447.697 175.735ZM453.304 172.475L457.628 164.449L459.44 164.322L460.177 174.863L458.365 174.989L457.827 167.303L453.504 175.329L451.711 175.455L450.974 164.914L452.767 164.789L453.304 172.475ZM464.819 171.67L469.143 163.644L470.955 163.517L471.692 174.058L469.88 174.184L469.342 166.498L465.018 174.524L463.226 174.649L462.489 164.109L464.281 163.983L464.819 171.67ZM467.892 159.894L469.353 159.791C469.388 160.298 469.303 160.757 469.097 161.17C468.89 161.576 468.577 161.905 468.157 162.156C467.738 162.407 467.229 162.554 466.632 162.595C465.729 162.659 464.998 162.468 464.438 162.024C463.884 161.574 463.581 160.965 463.527 160.199L464.989 160.097C465.015 160.48 465.149 160.81 465.391 161.087C465.632 161.363 466.019 161.483 466.551 161.446C467.071 161.41 467.431 161.238 467.631 160.93C467.832 160.622 467.918 160.277 467.892 159.894Z" fill="white"/>
</svg>
